<?xml version="1.0" encoding="UTF-8" standalone="no"?>
<svg
   xmlns:dc="http://purl.org/dc/elements/1.1/"
   xmlns:cc="http://creativecommons.org/ns#"
   xmlns:rdf="http://www.w3.org/1999/02/22-rdf-syntax-ns#"
   xmlns:svg="http://www.w3.org/2000/svg"
   xmlns="http://www.w3.org/2000/svg"
   xmlns:sodipodi="http://sodipodi.sourceforge.net/DTD/sodipodi-0.dtd"
   xmlns:inkscape="http://www.inkscape.org/namespaces/inkscape"
   version="1.1"
   id="svg2"
   xml:space="preserve"
   width="1447.3199"
   height="519.85333"
   viewBox="0 0 1447.3199 519.85333"
   sodipodi:docname="full logo.eps"><metadata
     id="metadata8"><rdf:RDF><cc:Work
         rdf:about=""><dc:format>image/svg+xml</dc:format><dc:type
           rdf:resource="http://purl.org/dc/dcmitype/StillImage" /></cc:Work></rdf:RDF></metadata><defs
     id="defs6"><clipPath
       clipPathUnits="userSpaceOnUse"
       id="clipPath240"><path
         d="m 5565.39,3515.84 c -4.14,0.98 -84.07,18.16 -122.89,-107.36 -17.26,-55.84 -16.19,-101.03 3.2,-134.32 16.44,-28.25 44.25,-43.14 64.76,-47.65 15.45,-3.39 68.72,-12.42 105.63,13.98 21.19,15.16 33.92,40.46 37.85,75.2 12.94,114.51 -56.58,193.11 -87.87,199.98 z m -104.26,-336.11 c -21.53,10.7 -47.55,29.45 -66.37,61.77 -28.17,48.39 -30.76,110.75 -7.69,185.36 28.94,93.56 78.28,129.57 114.57,143.31 38.72,14.66 70.58,7.9 76.13,6.52 32.68,-7.38 69.34,-40.46 95.77,-86.45 31.08,-54.1 44.15,-119.76 36.79,-184.87 -5.86,-51.9 -26.3,-90.7 -60.74,-115.33 -54.68,-39.13 -125.5,-29.08 -153.41,-22.94 -6.53,1.43 -19.63,4.96 -35.05,12.63 z"
         id="path238" /></clipPath><linearGradient
       x1="0"
       y1="0"
       x2="1"
       y2="0"
       gradientUnits="userSpaceOnUse"
       gradientTransform="matrix(130.593,341.037,341.037,-130.593,5468.33,3147.54)"
       spreadMethod="pad"
       id="linearGradient248"><stop
         style="stop-opacity:1;stop-color:#d26f7a"
         offset="0"
         id="stop242" /><stop
         style="stop-opacity:1;stop-color:#d26f7a"
         offset="0.458101"
         id="stop244" /><stop
         style="stop-opacity:1;stop-color:#4ea497"
         offset="1"
         id="stop246" /></linearGradient><clipPath
       clipPathUnits="userSpaceOnUse"
       id="clipPath268"><path
         d="m 6822.73,2886.99 c -26.04,12.94 -71.55,22.15 -144.37,-2.31 -146.66,-49.26 -178.22,-134.91 -178.18,-153.48 0.15,-59.79 68.22,-101.28 186.81,-113.84 106.98,-5.72 146.67,93.18 163.63,135.45 2.56,6.37 4.57,11.4 6.49,15.26 10.07,20.26 9.3,69.46 -5.77,96.62 -1.87,2.54 -10.53,13.32 -28.61,22.3 z m -284.51,-283.68 c -79.53,39.54 -90.88,97.03 -90.95,126.24 -0.09,33.74 39.47,143.4 216.22,202.78 168.08,56.47 230.09,-35.44 232.66,-39.38 l 0.63,-1.05 c 25.1,-43.67 24.23,-111.04 7.76,-144.18 -1.19,-2.39 -3.08,-7.1 -5.27,-12.56 -19.47,-48.52 -71.2,-177.39 -215.43,-169.25 l -1.09,0.09 c -63.72,6.7 -110.41,20.35 -144.53,37.31 z"
         id="path266" /></clipPath><linearGradient
       x1="0"
       y1="0"
       x2="1"
       y2="0"
       gradientUnits="userSpaceOnUse"
       gradientTransform="matrix(190.831,294.411,294.411,-190.831,6549.14,2547.18)"
       spreadMethod="pad"
       id="linearGradient276"><stop
         style="stop-opacity:1;stop-color:#d26f7a"
         offset="0"
         id="stop270" /><stop
         style="stop-opacity:1;stop-color:#d26f7a"
         offset="0.458101"
         id="stop272" /><stop
         style="stop-opacity:1;stop-color:#4ea497"
         offset="1"
         id="stop274" /></linearGradient><clipPath
       clipPathUnits="userSpaceOnUse"
       id="clipPath288"><path
         d="m 5938.38,2743.54 c 0,0 8.69,10.2 26.13,16.05 17.43,5.86 49.36,26.29 33.25,81.49 -26.31,56.63 -84.47,63.77 -133.82,30.21 -49.35,-33.55 -69.5,-117.91 -21.4,-174.49 30.61,-33.37 81.64,-98.67 215.24,-34.39 124.8,90.43 96.94,195.03 92.52,222.64 -4.44,27.61 -26.52,143.86 -151.64,191.54 -109.11,36.09 -188.99,-0.45 -299.36,-47.23 -110.38,-46.77 -175.62,-119.61 -208.91,-186.56 -33.28,-66.95 -44.62,-184.73 26.8,-267.43 58.3,-65.28 139.76,-83.98 218.2,-57.63 55.2,16.12 91.62,-12.87 107.72,-60.81 16.1,-47.93 80.32,-159.72 248.87,-120.08 84.24,30.73 139.36,83.2 171.12,176.31 0,0 27.44,77.11 18.6,125.06 0,0 1.37,39.26 26.07,45.13 24.7,5.87 31.97,5.89 50.92,-14.42 18.94,-20.3 1.73,-120.66 -25.71,-197.76 -27.44,-77.12 -115.89,-174.73 -188.52,-196.7 -72.64,-21.98 -156.89,-52.7 -283.55,28.41 0,0 -46.59,30.41 -78.73,97.21 -14.62,36.31 -14.62,36.31 -14.62,36.31 0,0 -1.48,11.63 -14.56,7.24 -11.1,-3.73 -98.78,-30.77 -174.44,-0.41 -75.67,30.35 -163.03,88.29 -189.53,232.15 -10.4,95.92 6.72,232.61 148.91,350.7 114.64,84.58 196,109.49 252.65,128.52 47.93,16.1 172.83,70.19 328.63,-39.93 85.94,-68.13 119.67,-197.43 115.47,-264.31 -2.46,-39.2 -2.5,-173 -166.55,-269.33 -148.13,-64.31 -267.52,16.82 -312.8,108.29 -40.98,114.75 -7.7,181.7 60.47,245.82 97.24,71.47 180.19,33.86 219.53,-3.84 34.98,-39.17 56.89,-82.73 41.06,-151.09 -19.57,-84.5 -99.67,-100.86 -108.79,-102.02 -23.25,-2.96 -55.33,34.76 -29.23,65.35 z"
         id="path286" /></clipPath><linearGradient
       x1="0"
       y1="0"
       x2="1"
       y2="0"
       gradientUnits="userSpaceOnUse"
       gradientTransform="matrix(413.795,910.273,-910.273,413.795,5675.73,2231.44)"
       spreadMethod="pad"
       id="linearGradient296"><stop
         style="stop-opacity:1;stop-color:#d26f7a"
         offset="0"
         id="stop290" /><stop
         style="stop-opacity:1;stop-color:#d26f7a"
         offset="0.830074"
         id="stop292" /><stop
         style="stop-opacity:1;stop-color:#4ea497"
         offset="1"
         id="stop294" /></linearGradient></defs><sodipodi:namedview
     pagecolor="#ffffff"
     bordercolor="#666666"
     borderopacity="1"
     objecttolerance="10"
     gridtolerance="10"
     guidetolerance="10"
     inkscape:pageopacity="0"
     inkscape:pageshadow="2"
     inkscape:window-width="640"
     inkscape:window-height="480"
     id="namedview4" /><g
     id="g10"
     inkscape:groupmode="layer"
     inkscape:label="ink_ext_XXXXXX"
     transform="matrix(1.3333333,0,0,-1.3333333,0,519.85333)"><g
       id="g12"
       transform="scale(0.1)"><path
         d="m 4492.72,2508.94 c 98.81,-40.48 174.51,-109.42 210.32,-186.75 35.26,-76.88 44.11,-157.56 32.2,-235.36 -14.53,-77.5 -47.67,-152.61 -101.73,-219.19 -52.42,-67.09 -124.71,-125.83 -210.4,-171.11 73.8,54.4 134.62,115.88 176.9,183.4 43.6,66.94 69.02,139.26 77.36,212.23 7.15,73.05 -4.47,147.25 -38.45,216.72 -33.22,69.18 -86.38,132.14 -146.2,200.06"
         style="fill:#ffffff;fill-opacity:1;fill-rule:nonzero;stroke:none"
         id="path14" /><path
         d="m 4492.72,2508.94 c 98.81,-40.48 174.51,-109.42 210.32,-186.75 35.26,-76.88 44.11,-157.56 32.2,-235.36 -14.53,-77.5 -47.67,-152.61 -101.73,-219.19 -52.42,-67.09 -124.71,-125.83 -210.4,-171.11 73.8,54.4 134.62,115.88 176.9,183.4 43.6,66.94 69.02,139.26 77.36,212.23 7.15,73.05 -4.47,147.25 -38.45,216.72 -33.22,69.18 -86.38,132.14 -146.2,200.06 z"
         style="fill:none;stroke:#ffffff;stroke-width:30;stroke-linecap:butt;stroke-linejoin:miter;stroke-miterlimit:10;stroke-dasharray:none;stroke-opacity:1"
         id="path16" /><path
         d="m 3972.04,2434.52 c 0,0 180,-70 230,-150 50,-80 90,-130 90,-280 0,0 0,-60 -10,-110 -11.44,-57.17 210,180 210,180 l -160,380 c 0,0 -190,80 -200,80 -10,0 -160,-100 -160,-100"
         style="fill:#ffffff;fill-opacity:1;fill-rule:nonzero;stroke:none"
         id="path18" /><path
         d="m 3672.04,2344.52 -10.76,-134.24 c 0,0 -9.24,-820.25 -64.24,-1033 0,0 0.66,-76.06 82.83,85.59 82.17,161.65 82.17,1081.65 82.17,1081.65 h -90"
         style="fill:#ffffff;fill-opacity:1;fill-rule:nonzero;stroke:none"
         id="path20" /><path
         d="m 3613.22,1167.47 c 18.35,43.31 23.99,89.88 28.31,136.31 5.21,46.28 7.74,92.97 10.79,139.53 4.92,93.29 8.49,186.75 11.15,280.31 6.61,187.11 9.94,374.37 22.35,562.37 20.64,-187.31 24.86,-375.62 19.38,-563.73 -3.52,-94.04 -8.89,-188.15 -20.53,-281.86 -5.9,-46.84 -12.89,-93.6 -23.06,-139.92 -4.96,-23.13 -11.37,-46.06 -18.38,-68.72 -3.22,-11.39 -8.37,-22.36 -12.5,-33.41 -4.02,-11.13 -11.94,-20.81 -17.51,-30.88"
         style="fill:#46474c;fill-opacity:1;fill-rule:nonzero;stroke:none"
         id="path22" /><path
         d="m 3613.22,1167.47 c 18.35,43.31 23.99,89.88 28.31,136.31 5.21,46.28 7.74,92.97 10.79,139.53 4.92,93.29 8.49,186.75 11.15,280.31 6.61,187.11 9.94,374.37 22.35,562.37 20.64,-187.31 24.86,-375.62 19.38,-563.73 -3.52,-94.04 -8.89,-188.15 -20.53,-281.86 -5.9,-46.84 -12.89,-93.6 -23.06,-139.92 -4.96,-23.13 -11.37,-46.06 -18.38,-68.72 -3.22,-11.39 -8.37,-22.36 -12.5,-33.41 -4.02,-11.13 -11.94,-20.81 -17.51,-30.88 z"
         style="fill:none;stroke:#ffffff;stroke-width:2.5;stroke-linecap:butt;stroke-linejoin:miter;stroke-miterlimit:10;stroke-dasharray:none;stroke-opacity:1"
         id="path24" /><path
         d="m 4707.04,1869.52 c 0,0 90,180 380,240 l -280,-730 210,-310 c 0,0 -130,0 -210,50 -2.92,1.8 -370,250 -100,750"
         style="fill:#ffffff;fill-opacity:1;fill-rule:nonzero;stroke:none"
         id="path26" /><path
         d="m 4707.04,1869.52 c 0,0 90,180 380,240 l -280,-730 210,-310 c 0,0 -130,0 -210,50 -2.92,1.8 -370,250 -100,750 z"
         style="fill:none;stroke:#ffffff;stroke-width:30;stroke-linecap:butt;stroke-linejoin:miter;stroke-miterlimit:10;stroke-dasharray:none;stroke-opacity:1"
         id="path28" /><path
         d="m 4562,2476.44 c 61.63,-31.18 110.05,-88.47 134.35,-154.96 23.95,-66.11 31.89,-136.76 27.04,-205.82 -6.44,-68.9 -24.32,-136.55 -55.26,-197.63 -29.92,-61.45 -72.25,-116.45 -123.17,-160.21 43.37,51.25 78.6,108.14 102.32,169.51 24.53,60.94 37.79,125.77 40.6,190.41 2.08,64.66 -7.35,129.48 -30.29,189.12 -22.47,59.43 -56.91,112.46 -95.59,169.58"
         style="fill:#46474c;fill-opacity:1;fill-rule:nonzero;stroke:none"
         id="path30" /><path
         d="m 4562,2476.44 c 61.63,-31.18 110.05,-88.47 134.35,-154.96 23.95,-66.11 31.89,-136.76 27.04,-205.82 -6.44,-68.9 -24.32,-136.55 -55.26,-197.63 -29.92,-61.45 -72.25,-116.45 -123.17,-160.21 43.37,51.25 78.6,108.14 102.32,169.51 24.53,60.94 37.79,125.77 40.6,190.41 2.08,64.66 -7.35,129.48 -30.29,189.12 -22.47,59.43 -56.91,112.46 -95.59,169.58 z"
         style="fill:none;stroke:#ffffff;stroke-width:7.5;stroke-linecap:butt;stroke-linejoin:miter;stroke-miterlimit:10;stroke-dasharray:none;stroke-opacity:1"
         id="path32" /><path
         d="m 4302.17,2039.76 c -0.91,54.86 -7.62,106.61 -25.98,154.12 -18.08,47.17 -45.42,90.62 -80.65,127.61 -34.76,36.73 -78.52,65.39 -126.11,87.51 -47.29,23.1 -99.15,38.23 -149.24,59.48 53.31,-8.22 107.19,-15.66 159.62,-33.69 52.31,-17.44 102.74,-45.42 144.04,-85.15 19.84,-20.51 38.45,-41.62 53.59,-66.09 14.91,-24.41 26.9,-50.8 34.01,-78.52 14.73,-55.2 11.63,-114.46 -9.28,-165.27"
         style="fill:#46474c;fill-opacity:1;fill-rule:nonzero;stroke:none"
         id="path34" /><path
         d="m 4302.17,2039.76 c -0.91,54.86 -7.62,106.61 -25.98,154.12 -18.08,47.17 -45.42,90.62 -80.65,127.61 -34.76,36.73 -78.52,65.39 -126.11,87.51 -47.29,23.1 -99.15,38.23 -149.24,59.48 53.31,-8.22 107.19,-15.66 159.62,-33.69 52.31,-17.44 102.74,-45.42 144.04,-85.15 19.84,-20.51 38.45,-41.62 53.59,-66.09 14.91,-24.41 26.9,-50.8 34.01,-78.52 14.73,-55.2 11.63,-114.46 -9.28,-165.27 z"
         style="fill:none;stroke:#ffffff;stroke-width:2.5;stroke-linecap:butt;stroke-linejoin:miter;stroke-miterlimit:10;stroke-dasharray:none;stroke-opacity:1"
         id="path36" /><path
         d="m 6082.04,2134.52 c 0,0 140,20 130,-130 -30,-120 -30,-490 -30,-660 0,0 10,-240 -80,130 -14.36,59.04 -100.01,128.47 -110,250 -33.89,292.54 90,410 90,410"
         style="fill:#ffffff;fill-opacity:1;fill-rule:nonzero;stroke:none"
         id="path38" /><path
         d="m 6082.04,2134.52 c 0,0 140,20 130,-130 -30,-120 -30,-490 -30,-660 0,0 10,-240 -80,130 -14.36,59.04 -100.01,128.47 -110,250 -33.89,292.54 90,410 90,410 z"
         style="fill:none;stroke:#ffffff;stroke-width:2.5;stroke-linecap:butt;stroke-linejoin:miter;stroke-miterlimit:10;stroke-dasharray:none;stroke-opacity:1"
         id="path40" /><path
         d="m 5772.8,1844.52 c 0,0 0,-330 -10.6,-380 0,-60 -10.59,-300 -31.78,-340 -21.19,-40 -95.34,-80 -95.34,-80 l -52.97,600 69.93,500 c 0,0 150,0 120.76,-300"
         style="fill:#ffffff;fill-opacity:1;fill-rule:nonzero;stroke:none"
         id="path42" /><path
         d="m 5772.8,1844.52 c 0,0 0,-330 -10.6,-380 0,-60 -10.59,-300 -31.78,-340 -21.19,-40 -95.34,-80 -95.34,-80 l -52.97,600 69.93,500 c 0,0 150,0 120.76,-300 z"
         style="fill:none;stroke:#ffffff;stroke-width:2.5;stroke-linecap:butt;stroke-linejoin:miter;stroke-miterlimit:10;stroke-dasharray:none;stroke-opacity:1"
         id="path44" /><path
         d="m 5308.22,1927.22 c 0,0 -231.18,-87.7 -281.18,-587.7 70,-570 -110,0 -110,0 l 90,620 301.18,-32.3"
         style="fill:#ffffff;fill-opacity:1;fill-rule:nonzero;stroke:none"
         id="path46" /><path
         d="m 5308.22,1927.22 c 0,0 -231.18,-87.7 -281.18,-587.7 70,-570 -110,0 -110,0 l 90,620 z"
         style="fill:none;stroke:#ffffff;stroke-width:30;stroke-linecap:butt;stroke-linejoin:miter;stroke-miterlimit:10;stroke-dasharray:none;stroke-opacity:1"
         id="path48" /><path
         d="m 6902.04,2114.52 c 0,0 280,70 180,-580 0,0 -40,-520 -320,-490 l 140,1070"
         style="fill:#ffffff;fill-opacity:1;fill-rule:nonzero;stroke:none"
         id="path50" /><path
         d="m 6902.04,2114.52 c 0,0 280,70 180,-580 0,0 -40,-520 -320,-490 z"
         style="fill:none;stroke:#ffffff;stroke-width:2.5;stroke-linecap:butt;stroke-linejoin:miter;stroke-miterlimit:10;stroke-dasharray:none;stroke-opacity:1"
         id="path52" /><path
         d="m 6462.04,1924.52 c 0,0 170,70 180,-90 20,-370 -70,-470 50,-640 0,0 -140,140 -150,450 -7.55,233.98 -80,280 -80,280"
         style="fill:#ffffff;fill-opacity:1;fill-rule:nonzero;stroke:none"
         id="path54" /><path
         d="m 6462.04,1924.52 c 0,0 170,70 180,-90 20,-370 -70,-470 50,-640 0,0 -140,140 -150,450 -7.55,233.98 -80,280 -80,280 z"
         style="fill:none;stroke:#ffffff;stroke-width:2.5;stroke-linecap:butt;stroke-linejoin:miter;stroke-miterlimit:10;stroke-dasharray:none;stroke-opacity:1"
         id="path56" /><path
         d="m 4816.2,1120.65 c -70.86,39.37 -123.45,109.92 -152.55,186.77 -30.1,77.18 -40.1,160.85 -36.64,242.88 4.36,82.13 22.29,163.5 54.63,238.8 32.01,75.11 78.31,145.01 139.14,198.02 -47.84,-64.75 -83.49,-135.63 -108.71,-209.74 -24.79,-74.17 -39.93,-151.42 -43.35,-229.1 -4.06,-77.57 3.56,-155.84 25.58,-230.12 22.01,-74.01 61.69,-144.02 121.9,-197.51"
         style="fill:#46474c;fill-opacity:1;fill-rule:nonzero;stroke:none"
         id="path58" /><path
         d="m 4816.2,1120.65 c -70.86,39.37 -123.45,109.92 -152.55,186.77 -30.1,77.18 -40.1,160.85 -36.64,242.88 4.36,82.13 22.29,163.5 54.63,238.8 32.01,75.11 78.31,145.01 139.14,198.02 -47.84,-64.75 -83.49,-135.63 -108.71,-209.74 -24.79,-74.17 -39.93,-151.42 -43.35,-229.1 -4.06,-77.57 3.56,-155.84 25.58,-230.12 22.01,-74.01 61.69,-144.02 121.9,-197.51 z"
         style="fill:none;stroke:#ffffff;stroke-width:2.5;stroke-linecap:butt;stroke-linejoin:miter;stroke-miterlimit:10;stroke-dasharray:none;stroke-opacity:1"
         id="path60" /><path
         d="m 5758.85,2015.39 c -3.85,-72.41 -2.77,-144.62 -5.14,-216.83 -1.44,-72.23 -4.46,-144.34 -7.47,-216.47 -3.61,-72.09 -7.24,-144.18 -12.41,-216.21 -4.22,-72.14 -11.95,-143.89 -14.09,-216.37 -15.24,71.62 -16.6,144.85 -18.51,217.17 -1.45,72.53 0.41,144.97 3.33,217.35 3.82,72.33 8.64,144.62 16.73,216.7 8.52,71.87 16.59,144.55 37.56,214.66"
         style="fill:#46474c;fill-opacity:1;fill-rule:nonzero;stroke:none"
         id="path62" /><path
         d="m 5758.85,2015.39 c -3.85,-72.41 -2.77,-144.62 -5.14,-216.83 -1.44,-72.23 -4.46,-144.34 -7.47,-216.47 -3.61,-72.09 -7.24,-144.18 -12.41,-216.21 -4.22,-72.14 -11.95,-143.89 -14.09,-216.37 -15.24,71.62 -16.6,144.85 -18.51,217.17 -1.45,72.53 0.41,144.97 3.33,217.35 3.82,72.33 8.64,144.62 16.73,216.7 8.52,71.87 16.59,144.55 37.56,214.66 z"
         style="fill:none;stroke:#ffffff;stroke-width:2.5;stroke-linecap:butt;stroke-linejoin:miter;stroke-miterlimit:10;stroke-dasharray:none;stroke-opacity:1"
         id="path64" /><path
         d="m 5484.17,1850.06 c -53.16,36.96 -109.21,75.51 -168.4,77.12 -59.17,2.8 -107.87,-39.66 -145.97,-87.34 -38.65,-48.06 -66.27,-105.5 -86.73,-165.29 -20.1,-60.12 -32.87,-123.17 -37.57,-188.6 -12.73,64.6 -9,132.54 6.22,197.56 15.13,65.16 42.98,128.32 85.41,182.35 21.66,26.24 46.39,51.12 76.79,70.09 30.36,18.54 68.34,28.9 104.31,23.65 36.08,-4.32 67.89,-20.75 94.97,-40.41 27.02,-20.19 49.85,-44.06 70.97,-69.13"
         style="fill:#46474c;fill-opacity:1;fill-rule:nonzero;stroke:none"
         id="path66" /><path
         d="m 5484.17,1850.06 c -53.16,36.96 -109.21,75.51 -168.4,77.12 -59.17,2.8 -107.87,-39.66 -145.97,-87.34 -38.65,-48.06 -66.27,-105.5 -86.73,-165.29 -20.1,-60.12 -32.87,-123.17 -37.57,-188.6 -12.73,64.6 -9,132.54 6.22,197.56 15.13,65.16 42.98,128.32 85.41,182.35 21.66,26.24 46.39,51.12 76.79,70.09 30.36,18.54 68.34,28.9 104.31,23.65 36.08,-4.32 67.89,-20.75 94.97,-40.41 27.02,-20.19 49.85,-44.06 70.97,-69.13 z"
         style="fill:none;stroke:#ffffff;stroke-width:2.5;stroke-linecap:butt;stroke-linejoin:miter;stroke-miterlimit:10;stroke-dasharray:none;stroke-opacity:1"
         id="path68" /><path
         d="m 6468.66,1238.71 c -2.49,-26.25 -9.81,-51.01 -19.86,-74.71 -9.83,-23.83 -23.03,-46.41 -39.63,-66.95 -16.63,-20.34 -36.69,-39.2 -61.44,-51.47 -24.18,-12.54 -53.86,-17.87 -78.99,-9.19 49.04,17.94 77.86,50.45 108.01,87.01 30.07,36.25 56.14,76.97 91.91,115.31"
         style="fill:#46474c;fill-opacity:1;fill-rule:nonzero;stroke:none"
         id="path70" /><path
         d="m 6468.66,1238.71 c -2.49,-26.25 -9.81,-51.01 -19.86,-74.71 -9.83,-23.83 -23.03,-46.41 -39.63,-66.95 -16.63,-20.34 -36.69,-39.2 -61.44,-51.47 -24.18,-12.54 -53.86,-17.87 -78.99,-9.19 49.04,17.94 77.86,50.45 108.01,87.01 30.07,36.25 56.14,76.97 91.91,115.31 z"
         style="fill:none;stroke:#ffffff;stroke-width:2.5;stroke-linecap:butt;stroke-linejoin:miter;stroke-miterlimit:10;stroke-dasharray:none;stroke-opacity:1"
         id="path72" /><path
         d="m 7042.38,2043.69 c 12.72,-79.79 17.88,-160.45 19.26,-241.14 1.67,-80.73 -2.04,-161.59 -10.39,-242.19 -9.28,-80.43 -22.25,-160.95 -46.42,-239.01 -24.51,-76.95 -58.52,-155.89 -118.92,-211 46.59,66.21 69,142.83 87.42,219.46 17.08,77.24 28.01,155.97 36.42,235.02 17.49,158.25 23.44,317.91 32.63,478.86"
         style="fill:#46474c;fill-opacity:1;fill-rule:nonzero;stroke:none"
         id="path74" /><path
         d="m 7042.38,2043.69 c 12.72,-79.79 17.88,-160.45 19.26,-241.14 1.67,-80.73 -2.04,-161.59 -10.39,-242.19 -9.28,-80.43 -22.25,-160.95 -46.42,-239.01 -24.51,-76.95 -58.52,-155.89 -118.92,-211 46.59,66.21 69,142.83 87.42,219.46 17.08,77.24 28.01,155.97 36.42,235.02 17.49,158.25 23.44,317.91 32.63,478.86 z"
         style="fill:none;stroke:#ffffff;stroke-width:2.5;stroke-linecap:butt;stroke-linejoin:miter;stroke-miterlimit:10;stroke-dasharray:none;stroke-opacity:1"
         id="path76" /><path
         d="m 6373.9,1837.02 c -0.92,14.33 6.64,28.85 16.62,39.62 10.02,11.07 22.3,19.62 35.06,26.95 26.1,13.77 54.25,23.25 85.96,23.9 l -1.94,-0.03 c 19.06,1.58 36.04,-0.43 54.05,-7.32 17.59,-6.51 34.95,-20.22 44.54,-38.49 9.64,-18.26 11.49,-38.08 10.57,-55.84 -0.83,-10.26 -1.11,-13.67 -1.04,-22.37 -0.04,-7.88 -0.07,-16.84 -1.56,-25.95 l 0.16,1.65 c -3.59,-51.54 -3.96,-103.31 -3.2,-155.36 1.01,-52.08 4.08,-104.26 6.87,-157.54 -19.39,49.74 -31.57,102.04 -38.86,155.01 -7.54,52.99 -9.21,106.84 -6.33,160.49 l 0.03,0.35 0.14,1.3 c 0.74,6.34 1.21,12.99 1.36,20.7 -0.07,6.9 1.06,19.02 1.66,24.28 1.06,13.2 -0.56,25.51 -5.16,35.18 -4.4,9.72 -12.27,17.47 -23.48,22.63 -10.75,5.13 -25.33,7.84 -37.31,8.29 l -1.95,-0.03 c -23.99,2.17 -51.2,-1.87 -76.05,-9.99 -12.62,-3.93 -24.75,-9.38 -35.69,-16.67 -10.78,-7.3 -20.65,-17.02 -24.45,-30.76"
         style="fill:#46474c;fill-opacity:1;fill-rule:nonzero;stroke:none"
         id="path78" /><path
         d="m 6373.9,1837.02 c -0.92,14.33 6.64,28.85 16.62,39.62 10.02,11.07 22.3,19.62 35.06,26.95 26.1,13.77 54.25,23.25 85.96,23.9 l -1.94,-0.03 c 19.06,1.58 36.04,-0.43 54.05,-7.32 17.59,-6.51 34.95,-20.22 44.54,-38.49 9.64,-18.26 11.49,-38.08 10.57,-55.84 -0.83,-10.26 -1.11,-13.67 -1.04,-22.37 -0.04,-7.88 -0.07,-16.84 -1.56,-25.95 l 0.16,1.65 c -3.59,-51.54 -3.96,-103.31 -3.2,-155.36 1.01,-52.08 4.08,-104.26 6.87,-157.54 -19.39,49.74 -31.57,102.04 -38.86,155.01 -7.54,52.99 -9.21,106.84 -6.33,160.49 l 0.03,0.35 0.14,1.3 c 0.74,6.34 1.21,12.99 1.36,20.7 -0.07,6.9 1.06,19.02 1.66,24.28 1.06,13.2 -0.56,25.51 -5.16,35.18 -4.4,9.72 -12.27,17.47 -23.48,22.63 -10.75,5.13 -25.33,7.84 -37.31,8.29 l -1.95,-0.03 c -23.99,2.17 -51.2,-1.87 -76.05,-9.99 -12.62,-3.93 -24.75,-9.38 -35.69,-16.67 -10.78,-7.3 -20.65,-17.02 -24.45,-30.76 z"
         style="fill:none;stroke:#ffffff;stroke-width:2.5;stroke-linecap:butt;stroke-linejoin:miter;stroke-miterlimit:10;stroke-dasharray:none;stroke-opacity:1"
         id="path80" /><path
         d="m 6120.95,2126.36 c 34.34,-2.32 67.27,-29.73 76.99,-66.45 2.37,-9.09 3.74,-18.57 3.57,-28.09 -0.21,-10.11 -1.62,-18.6 -2.65,-26.75 -2.22,-16.73 -4.81,-33.34 -6.58,-49.99 -7.81,-66.56 -14.55,-133.18 -18.34,-200.02 -4.59,-66.79 -6.65,-133.69 -7.25,-200.66 -0.37,-67.08 1.96,-133.87 8.65,-201.65 -23.7,64.01 -35.48,132.31 -41.22,200.26 -6.11,68.14 -5.8,136.59 -1.85,204.74 4.72,68.1 13.38,135.99 27.99,202.76 3.58,16.72 7.3,33.33 11.85,49.72 2.25,8.42 4.56,16.46 5.57,23.23 1.19,7.35 0.97,14.83 0.28,22.33 -2.88,30.21 -24.77,58.84 -57.01,70.57"
         style="fill:#46474c;fill-opacity:1;fill-rule:nonzero;stroke:none"
         id="path82" /><path
         d="m 6120.95,2126.36 c 34.34,-2.32 67.27,-29.73 76.99,-66.45 2.37,-9.09 3.74,-18.57 3.57,-28.09 -0.21,-10.11 -1.62,-18.6 -2.65,-26.75 -2.22,-16.73 -4.81,-33.34 -6.58,-49.99 -7.81,-66.56 -14.55,-133.18 -18.34,-200.02 -4.59,-66.79 -6.65,-133.69 -7.25,-200.66 -0.37,-67.08 1.96,-133.87 8.65,-201.65 -23.7,64.01 -35.48,132.31 -41.22,200.26 -6.11,68.14 -5.8,136.59 -1.85,204.74 4.72,68.1 13.38,135.99 27.99,202.76 3.58,16.72 7.3,33.33 11.85,49.72 2.25,8.42 4.56,16.46 5.57,23.23 1.19,7.35 0.97,14.83 0.28,22.33 -2.88,30.21 -24.77,58.84 -57.01,70.57 z"
         style="fill:none;stroke:#ffffff;stroke-width:2.5;stroke-linecap:butt;stroke-linejoin:miter;stroke-miterlimit:10;stroke-dasharray:none;stroke-opacity:1"
         id="path84" /><path
         d="m 9952.04,1034.52 c 0,0 139.96,-30 209.96,50 70,80 70,100 70,100 l -72.3,57.12 -127.7,-57.12 -79.96,-150"
         style="fill:#ffffff;fill-opacity:1;fill-rule:nonzero;stroke:none"
         id="path86" /><path
         d="m 9952.04,1034.52 c 0,0 139.96,-30 209.96,50 70,80 70,100 70,100 l -72.3,57.12 -127.7,-57.12 z"
         style="fill:none;stroke:#ffffff;stroke-width:2.5;stroke-linecap:butt;stroke-linejoin:miter;stroke-miterlimit:10;stroke-dasharray:none;stroke-opacity:1"
         id="path88" /><path
         d="m 4417.44,383.711 c -11.89,8.949 -25.7,16.559 -41.02,22.519 -14.58,5.719 -29.35,10.829 -44.3,15.489 l -43.37,13.73 c -13.28,4.231 -25.12,9.293 -35.24,15.102 -9.52,5.469 -16.97,11.769 -22.77,19.289 -4.99,6.422 -7.42,14.629 -7.42,25.09 0,8.82 1.93,17.019 5.9,25.062 3.97,8.168 9.61,15.188 17.22,21.457 7.72,6.371 17.25,11.551 28.35,15.41 23.83,8.391 57.46,7.051 77.43,1.11 10.99,-3.289 20.27,-6.949 27.55,-10.899 7.51,-4.101 13.47,-7.73 17.93,-10.988 18.18,-13.422 33.45,-9.102 41.45,4.629 l 14.12,23.391 -8.01,7.48 c -17.72,16.547 -37.73,29.008 -59.53,37.109 -39.77,14.59 -95.71,16.528 -136.91,1.668 -18.83,-6.789 -35.14,-16.14 -48.51,-27.757 -13.47,-11.743 -24.05,-25.614 -31.37,-41.27 -7.38,-15.723 -11.13,-32.332 -11.13,-49.41 0,-20.031 4.06,-37.211 12.1,-51.102 7.72,-13.379 18.01,-24.898 30.55,-34.238 11.98,-8.922 25.81,-16.441 41.08,-22.312 14.39,-5.559 29.16,-10.649 44.24,-15.278 14.79,-4.562 29.21,-9.133 43.27,-13.66 13,-4.223 24.82,-9.422 35.11,-15.5 9.47,-5.562 17.16,-12.391 22.91,-20.25 5.17,-7.121 7.69,-16.152 7.69,-27.613 0,-11.059 -2.05,-21.61 -6.08,-31.528 -3.94,-9.66 -9.81,-18.191 -17.47,-25.402 -7.76,-7.289 -17.71,-13.168 -29.56,-17.488 -25.26,-9.219 -64.28,-8.442 -86.53,-0.582 -12.03,4.222 -22.21,8.812 -30.3,13.66 -7.98,4.73 -14.46,9.23 -19.21,13.332 -14.24,12.289 -28.19,11.891 -36.73,6.48 -3.69,-2.23 -6.88,-5.429 -9.31,-9.339 l -15.66,-24.231 8.56,-7.699 c 18.09,-16.332 38.87,-29.723 61.73,-39.781 23.33,-10.309 51.22,-15.532 82.87,-15.532 25.34,0 48.36,3.723 68.4,11.11 20.1,7.461 37.39,17.742 51.31,30.57 14.11,13.043 24.94,28.633 32.2,46.34 7.2,17.609 10.83,36.769 10.83,56.953 0,19.469 -4.06,36.398 -12.03,50.34 -7.73,13.547 -17.94,25.16 -30.34,34.539"
         style="fill:#656263;fill-opacity:1;fill-rule:nonzero;stroke:none"
         id="path90" /><path
         d="m 4417.44,383.711 c -11.89,8.949 -25.7,16.559 -41.02,22.519 -14.58,5.719 -29.35,10.829 -44.3,15.489 l -43.37,13.73 c -13.28,4.231 -25.12,9.293 -35.24,15.102 -9.52,5.469 -16.97,11.769 -22.77,19.289 -4.99,6.422 -7.42,14.629 -7.42,25.09 0,8.82 1.93,17.019 5.9,25.062 3.97,8.168 9.61,15.188 17.22,21.457 7.72,6.371 17.25,11.551 28.35,15.41 23.83,8.391 57.46,7.051 77.43,1.11 10.99,-3.289 20.27,-6.949 27.55,-10.899 7.51,-4.101 13.47,-7.73 17.93,-10.988 18.18,-13.422 33.45,-9.102 41.45,4.629 l 14.12,23.391 -8.01,7.48 c -17.72,16.547 -37.73,29.008 -59.53,37.109 -39.77,14.59 -95.71,16.528 -136.91,1.668 -18.83,-6.789 -35.14,-16.14 -48.51,-27.757 -13.47,-11.743 -24.05,-25.614 -31.37,-41.27 -7.38,-15.723 -11.13,-32.332 -11.13,-49.41 0,-20.031 4.06,-37.211 12.1,-51.102 7.72,-13.379 18.01,-24.898 30.55,-34.238 11.98,-8.922 25.81,-16.441 41.08,-22.312 14.39,-5.559 29.16,-10.649 44.24,-15.278 14.79,-4.562 29.21,-9.133 43.27,-13.66 13,-4.223 24.82,-9.422 35.11,-15.5 9.47,-5.562 17.16,-12.391 22.91,-20.25 5.17,-7.121 7.69,-16.152 7.69,-27.613 0,-11.059 -2.05,-21.61 -6.08,-31.528 -3.94,-9.66 -9.81,-18.191 -17.47,-25.402 -7.76,-7.289 -17.71,-13.168 -29.56,-17.488 -25.26,-9.219 -64.28,-8.442 -86.53,-0.582 -12.03,4.222 -22.21,8.812 -30.3,13.66 -7.98,4.73 -14.46,9.23 -19.21,13.332 -14.24,12.289 -28.19,11.891 -36.73,6.48 -3.69,-2.23 -6.88,-5.429 -9.31,-9.339 l -15.66,-24.231 8.56,-7.699 c 18.09,-16.332 38.87,-29.723 61.73,-39.781 23.33,-10.309 51.22,-15.532 82.87,-15.532 25.34,0 48.36,3.723 68.4,11.11 20.1,7.461 37.39,17.742 51.31,30.57 14.11,13.043 24.94,28.633 32.2,46.34 7.2,17.609 10.83,36.769 10.83,56.953 0,19.469 -4.06,36.398 -12.03,50.34 -7.73,13.547 -17.94,25.16 -30.34,34.539 z"
         style="fill:none;stroke:#ffffff;stroke-width:20;stroke-linecap:butt;stroke-linejoin:miter;stroke-miterlimit:10;stroke-dasharray:none;stroke-opacity:1"
         id="path92" /><path
         d="m 4611.64,487.629 c 16.26,22.73 34.71,40.812 54.91,53.703 20.51,13.078 43.83,19.719 69.33,19.719 39.58,0 68.96,-12.949 89.88,-39.602 21.36,-27.269 32.19,-71.5 32.19,-131.437 0,-26.453 -3.1,-51.114 -9.18,-73.262 -5.89,-21.449 -14.76,-40.059 -26.36,-55.34 -11.36,-14.91 -25.6,-26.621 -42.42,-34.762 -16.84,-8.187 -37.04,-12.359 -59.97,-12.359 -11.69,0 -22.8,1.07 -33,3.152 -9.93,2.047 -19.42,5.418 -28.23,10.02 -8.97,4.789 -17.55,11 -25.56,18.578 -7.36,6.801 -14.58,15.313 -21.59,25.27 z m 135.75,133.391 c -33.69,0 -64.59,-8.29 -91.8,-24.629 -17.3,-10.34 -33.35,-23.192 -47.89,-38.352 l -2.21,33.57 c -2.14,13.672 -12,22.141 -25.75,22.141 H 4543.6 V 10 h 68.04 v 186.441 c 10.83,-9.66 22.58,-17.679 35.21,-24.011 22.86,-11.461 50.07,-17.27 80.87,-17.27 31.92,0 60.65,6.25 85.31,18.539 24.7,12.27 45.79,29.262 62.73,50.531 16.81,21.102 29.72,46.25 38.32,74.762 8.46,28.098 12.74,58.727 12.74,91.02 0,75.328 -15.72,133.058 -46.81,171.66 -31.79,39.379 -76.41,59.348 -132.62,59.348"
         style="fill:#656263;fill-opacity:1;fill-rule:nonzero;stroke:none"
         id="path94" /><path
         d="m 4611.64,487.629 c 16.26,22.73 34.71,40.812 54.91,53.703 20.51,13.078 43.83,19.719 69.33,19.719 39.58,0 68.96,-12.949 89.88,-39.602 21.36,-27.269 32.19,-71.5 32.19,-131.437 0,-26.453 -3.1,-51.114 -9.18,-73.262 -5.89,-21.449 -14.76,-40.059 -26.36,-55.34 -11.36,-14.91 -25.6,-26.621 -42.42,-34.762 -16.84,-8.187 -37.04,-12.359 -59.97,-12.359 -11.69,0 -22.8,1.07 -33,3.152 -9.93,2.047 -19.42,5.418 -28.23,10.02 -8.97,4.789 -17.55,11 -25.56,18.578 -7.36,6.801 -14.58,15.313 -21.59,25.27 z m 135.75,133.391 c -33.69,0 -64.59,-8.29 -91.8,-24.629 -17.3,-10.34 -33.35,-23.192 -47.89,-38.352 l -2.21,33.57 c -2.14,13.672 -12,22.141 -25.75,22.141 H 4543.6 V 10 h 68.04 v 186.441 c 10.83,-9.66 22.58,-17.679 35.21,-24.011 22.86,-11.461 50.07,-17.27 80.87,-17.27 31.92,0 60.65,6.25 85.31,18.539 24.7,12.27 45.79,29.262 62.73,50.531 16.81,21.102 29.72,46.25 38.32,74.762 8.46,28.098 12.74,58.727 12.74,91.02 0,75.328 -15.72,133.058 -46.81,171.66 -31.79,39.379 -76.41,59.348 -132.62,59.348 z"
         style="fill:none;stroke:#ffffff;stroke-width:20;stroke-linecap:butt;stroke-linejoin:miter;stroke-miterlimit:10;stroke-dasharray:none;stroke-opacity:1"
         id="path96" /><path
         d="m 5091.37,214.539 c -8.56,2.641 -15.89,6.621 -22.37,12.18 -6.23,5.301 -11.39,12.363 -15.29,20.992 -3.88,8.508 -5.83,19.07 -5.83,31.398 0,12.211 3.56,22.77 10.88,32.243 7.73,10.027 20.17,18.98 36.95,26.519 17.84,8.039 41.04,14.57 68.99,19.348 25.07,4.293 54.91,7.269 88.82,8.89 v -91.718 c -8.47,-8.512 -17.03,-16.532 -25.68,-23.981 -9.53,-8.191 -19.86,-15.371 -30.78,-21.269 -10.77,-5.84 -22.71,-10.493 -35.42,-13.782 -20.67,-5.347 -47.48,-7.769 -70.27,-0.82 z m 219.83,305.422 c -6.22,20.93 -15.64,39.141 -28.02,54.008 -12.63,15.179 -28.63,26.992 -47.65,35.101 -18.74,7.918 -40.64,11.95 -65.18,11.95 -32.86,0 -62.82,-6.18 -89.1,-18.348 -25.86,-12.082 -50.75,-29.973 -73.98,-53.231 l -7.39,-7.402 12.75,-21.68 c 2.3,-3.777 5.25,-6.949 8.72,-9.437 9.87,-7.141 24.76,-6.953 40.45,7.359 5.9,5.379 13.56,11.27 22.96,17.739 9.09,6.21 20.51,12.082 33.91,17.39 12.75,5.059 28.7,7.641 47.43,7.641 29.29,0 50.51,-8.789 64.93,-26.84 14.92,-18.691 22.49,-46.449 22.49,-82.551 v -31.39 c -43.34,-1.528 -81.28,-5.5 -112.95,-11.84 -35.46,-7.078 -65.09,-16.739 -88.08,-28.66 -23.91,-12.45 -41.84,-27.52 -53.29,-44.758 -11.72,-17.602 -17.65,-36.992 -17.65,-57.571 0,-21.312 3.63,-40 10.86,-55.632 7.28,-15.68 17.16,-28.688 29.31,-38.758 12.01,-9.903 25.84,-17.36 41.08,-22.11 14.95,-4.691 30.55,-7.082 46.4,-7.082 18.27,0 35.43,1.871 50.98,5.5 15.57,3.661 30.24,8.942 43.61,15.641 13.37,6.68 26.31,14.969 38.47,24.602 5.27,4.16 10.64,8.636 16.01,13.328 l 3.35,-30.008 c 3.54,-14.133 14.09,-22.192 28.91,-22.192 h 29.76 v 290.93 c 0,24.969 -3.05,47.961 -9.09,68.301"
         style="fill:#656263;fill-opacity:1;fill-rule:nonzero;stroke:none"
         id="path98" /><path
         d="m 5091.37,214.539 c -8.56,2.641 -15.89,6.621 -22.37,12.18 -6.23,5.301 -11.39,12.363 -15.29,20.992 -3.88,8.508 -5.83,19.07 -5.83,31.398 0,12.211 3.56,22.77 10.88,32.243 7.73,10.027 20.17,18.98 36.95,26.519 17.84,8.039 41.04,14.57 68.99,19.348 25.07,4.293 54.91,7.269 88.82,8.89 v -91.718 c -8.47,-8.512 -17.03,-16.532 -25.68,-23.981 -9.53,-8.191 -19.86,-15.371 -30.78,-21.269 -10.77,-5.84 -22.71,-10.493 -35.42,-13.782 -20.67,-5.347 -47.48,-7.769 -70.27,-0.82 z m 219.83,305.422 c -6.22,20.93 -15.64,39.141 -28.02,54.008 -12.63,15.179 -28.63,26.992 -47.65,35.101 -18.74,7.918 -40.64,11.95 -65.18,11.95 -32.86,0 -62.82,-6.18 -89.1,-18.348 -25.86,-12.082 -50.75,-29.973 -73.98,-53.231 l -7.39,-7.402 12.75,-21.68 c 2.3,-3.777 5.25,-6.949 8.72,-9.437 9.87,-7.141 24.76,-6.953 40.45,7.359 5.9,5.379 13.56,11.27 22.96,17.739 9.09,6.21 20.51,12.082 33.91,17.39 12.75,5.059 28.7,7.641 47.43,7.641 29.29,0 50.51,-8.789 64.93,-26.84 14.92,-18.691 22.49,-46.449 22.49,-82.551 v -31.39 c -43.34,-1.528 -81.28,-5.5 -112.95,-11.84 -35.46,-7.078 -65.09,-16.739 -88.08,-28.66 -23.91,-12.45 -41.84,-27.52 -53.29,-44.758 -11.72,-17.602 -17.65,-36.992 -17.65,-57.571 0,-21.312 3.63,-40 10.86,-55.632 7.28,-15.68 17.16,-28.688 29.31,-38.758 12.01,-9.903 25.84,-17.36 41.08,-22.11 14.95,-4.691 30.55,-7.082 46.4,-7.082 18.27,0 35.43,1.871 50.98,5.5 15.57,3.661 30.24,8.942 43.61,15.641 13.37,6.68 26.31,14.969 38.47,24.602 5.27,4.16 10.64,8.636 16.01,13.328 l 3.35,-30.008 c 3.54,-14.133 14.09,-22.192 28.91,-22.192 h 29.76 v 290.93 c 0,24.969 -3.05,47.961 -9.09,68.301 z"
         style="fill:none;stroke:#ffffff;stroke-width:20;stroke-linecap:butt;stroke-linejoin:miter;stroke-miterlimit:10;stroke-dasharray:none;stroke-opacity:1"
         id="path100" /><path
         d="m 5811.42,476.512 c -30.23,-15.981 -52.96,-35.403 -68.21,-58.242 -15.26,-22.829 -22.89,-47.661 -22.89,-74.481 0,-18.559 3.42,-34.891 10.27,-49.027 6.86,-14.133 15.82,-26.063 26.95,-35.762 11.12,-9.699 23.78,-17.059 38.07,-22.051 14.23,-4.98 28.79,-7.488 43.6,-7.488 31.94,0 60.67,5.848 86.18,17.559 25.53,11.699 47.83,27.402 66.93,47.101 z M 6206.61,174.23 h -74.02 c -8.27,0 -14.95,1.012 -20.1,3.012 -5.12,1.977 -10.69,6.129 -16.68,12.406 l -62.01,62.524 c -26.8,-25.981 -57.65,-46.613 -92.58,-61.883 -34.94,-15.277 -73.35,-22.91 -115.26,-22.91 -22.81,0 -45.11,3.84 -66.94,11.57 -21.8,7.68 -41.4,18.903 -58.8,33.61 -17.37,14.691 -31.36,32.589 -41.91,53.711 -10.55,21.14 -15.82,44.96 -15.82,71.531 0,19.961 3.34,38.879 10.06,56.719 6.68,17.851 16.04,34.32 28.01,49.46 11.97,15.11 26.08,28.68 42.33,40.661 16.25,11.988 34.07,22.281 53.45,30.828 -17.37,22.281 -30.21,43.742 -38.47,64.453 -8.28,20.68 -12.4,42.168 -12.4,64.418 0,20.851 3.76,40.39 11.33,58.672 7.55,18.258 18.44,34.168 32.72,47.726 14.25,13.543 31.57,24.242 51.96,32.114 20.38,7.859 43.26,11.777 68.63,11.777 22.52,0 43.04,-3.649 61.58,-10.93 18.52,-7.269 34.51,-16.91 47.89,-28.898 13.4,-11.981 24.04,-25.891 31.89,-41.731 7.82,-15.859 12.3,-32.332 13.45,-49.468 l -47.47,-9.403 c -9.39,-2.308 -16.38,2.121 -20.94,13.27 -2.01,7.422 -5.21,15.113 -9.64,23.113 -4.42,8 -10.11,15.27 -17.09,21.859 -6.99,6.551 -15.4,11.981 -25.23,16.25 -9.86,4.278 -21.32,6.43 -34.44,6.43 -14.26,0 -27.15,-2.281 -38.7,-6.851 -11.56,-4.579 -21.39,-10.93 -29.52,-19.071 -8.13,-8.14 -14.31,-17.699 -18.59,-28.679 -4.29,-10.989 -6.41,-22.918 -6.41,-35.739 0,-10 1.11,-19.562 3.43,-28.679 2.25,-9.141 5.9,-18.422 10.88,-27.84 4.99,-9.43 11.33,-18.992 19.05,-28.692 7.68,-9.699 16.95,-19.988 27.78,-30.828 L 6034.22,349.34 c 10.83,19.402 19.55,39.609 26.1,60.601 6.57,20.957 10.83,41.868 12.83,62.719 0.58,5.41 2.28,9.699 5.16,12.852 2.83,3.117 6.81,4.707 11.97,4.707 h 46.6 c -0.27,-32.828 -5.43,-65.028 -15.39,-96.547 -10,-31.57 -24.4,-61.172 -43.18,-88.84 l 128.3,-130.602"
         style="fill:#46474c;fill-opacity:1;fill-rule:nonzero;stroke:none"
         id="path102" /><path
         d="m 5811.42,476.512 c -30.23,-15.981 -52.96,-35.403 -68.21,-58.242 -15.26,-22.829 -22.89,-47.661 -22.89,-74.481 0,-18.559 3.42,-34.891 10.27,-49.027 6.86,-14.133 15.82,-26.063 26.95,-35.762 11.12,-9.699 23.78,-17.059 38.07,-22.051 14.23,-4.98 28.79,-7.488 43.6,-7.488 31.94,0 60.67,5.848 86.18,17.559 25.53,11.699 47.83,27.402 66.93,47.101 z M 6206.61,174.23 h -74.02 c -8.27,0 -14.95,1.012 -20.1,3.012 -5.12,1.977 -10.69,6.129 -16.68,12.406 l -62.01,62.524 c -26.8,-25.981 -57.65,-46.613 -92.58,-61.883 -34.94,-15.277 -73.35,-22.91 -115.26,-22.91 -22.81,0 -45.11,3.84 -66.94,11.57 -21.8,7.68 -41.4,18.903 -58.8,33.61 -17.37,14.691 -31.36,32.589 -41.91,53.711 -10.55,21.14 -15.82,44.96 -15.82,71.531 0,19.961 3.34,38.879 10.06,56.719 6.68,17.851 16.04,34.32 28.01,49.46 11.97,15.11 26.08,28.68 42.33,40.661 16.25,11.988 34.07,22.281 53.45,30.828 -17.37,22.281 -30.21,43.742 -38.47,64.453 -8.28,20.68 -12.4,42.168 -12.4,64.418 0,20.851 3.76,40.39 11.33,58.672 7.55,18.258 18.44,34.168 32.72,47.726 14.25,13.543 31.57,24.242 51.96,32.114 20.38,7.859 43.26,11.777 68.63,11.777 22.52,0 43.04,-3.649 61.58,-10.93 18.52,-7.269 34.51,-16.91 47.89,-28.898 13.4,-11.981 24.04,-25.891 31.89,-41.731 7.82,-15.859 12.3,-32.332 13.45,-49.468 l -47.47,-9.403 c -9.39,-2.308 -16.38,2.121 -20.94,13.27 -2.01,7.422 -5.21,15.113 -9.64,23.113 -4.42,8 -10.11,15.27 -17.09,21.859 -6.99,6.551 -15.4,11.981 -25.23,16.25 -9.86,4.278 -21.32,6.43 -34.44,6.43 -14.26,0 -27.15,-2.281 -38.7,-6.851 -11.56,-4.579 -21.39,-10.93 -29.52,-19.071 -8.13,-8.14 -14.31,-17.699 -18.59,-28.679 -4.29,-10.989 -6.41,-22.918 -6.41,-35.739 0,-10 1.11,-19.562 3.43,-28.679 2.25,-9.141 5.9,-18.422 10.88,-27.84 4.99,-9.43 11.33,-18.992 19.05,-28.692 7.68,-9.699 16.95,-19.988 27.78,-30.828 L 6034.22,349.34 c 10.83,19.402 19.55,39.609 26.1,60.601 6.57,20.957 10.83,41.868 12.83,62.719 0.58,5.41 2.28,9.699 5.16,12.852 2.83,3.117 6.81,4.707 11.97,4.707 h 46.6 c -0.27,-32.828 -5.43,-65.028 -15.39,-96.547 -10,-31.57 -24.4,-61.172 -43.18,-88.84 z"
         style="fill:none;stroke:#ffffff;stroke-width:20;stroke-linecap:butt;stroke-linejoin:miter;stroke-miterlimit:10;stroke-dasharray:none;stroke-opacity:1"
         id="path104" /><path
         d="m 6644.11,386.172 c 15.39,0 28.92,2.137 40.62,6.43 11.69,4.269 21.52,10.257 29.51,17.98 7.96,7.688 13.95,16.887 17.96,27.598 3.98,10.699 5.99,22.492 5.99,35.34 0,26.539 -8.05,47.671 -24.17,63.359 -16.1,15.691 -39.43,23.551 -69.91,23.551 -30.8,0 -54.24,-7.86 -70.37,-23.551 -16.12,-15.688 -24.17,-36.82 -24.17,-63.359 0,-12.848 2.07,-24.641 6.22,-35.34 4.12,-10.711 10.18,-19.91 18.18,-27.598 7.96,-7.723 17.81,-13.711 29.51,-17.98 11.67,-4.293 25.23,-6.43 40.63,-6.43 z M 6781.37,150.68 c 0,10.562 -2.98,19.121 -8.96,25.699 -5.99,6.551 -14.07,11.711 -24.17,15.41 -10.14,3.711 -21.89,6.359 -35.28,7.922 -13.42,1.559 -27.59,2.789 -42.57,3.621 -14.96,0.867 -30.13,1.727 -45.52,2.598 -15.4,0.832 -30.25,2.261 -44.5,4.261 -15.95,-7.41 -29.01,-16.75 -39.12,-28.043 -10.13,-11.257 -15.2,-24.468 -15.2,-39.609 0,-9.687 2.5,-18.758 7.49,-27.18 4.98,-8.41 12.61,-15.6871 22.88,-21.8199 10.28,-6.1289 23.17,-10.9883 38.71,-14.5782 15.54,-3.5703 33.86,-5.3515 54.96,-5.3515 20.52,0 38.93,1.8594 55.16,5.5703 16.26,3.7109 30.01,9.0117 41.29,15.832 11.25,6.8593 19.88,15.0003 25.87,24.4293 5.98,9.411 8.96,19.84 8.96,31.239 z m 77.43,440.129 v -28.227 c 0,-9.422 -5.98,-15.422 -17.99,-18.012 l -49.17,-6.41 c 9.69,-18.84 14.54,-39.66 14.54,-62.519 0,-21.11 -4.07,-40.301 -12.17,-57.559 -8.13,-17.293 -19.32,-32.062 -33.58,-44.32 -14.25,-12.293 -31.37,-21.723 -51.31,-28.274 -19.97,-6.566 -41.65,-9.828 -65.01,-9.828 -20.25,0 -39.35,2.422 -57.31,7.27 -9.13,-5.711 -16.12,-11.789 -20.97,-18.2 -4.84,-6.421 -7.26,-12.91 -7.26,-19.48 0,-10.27 4.21,-18.07 12.62,-23.328 8.4,-5.313 19.46,-9.063 33.12,-11.352 13.7,-2.289 29.33,-3.711 46.84,-4.3 17.54,-0.551 35.49,-1.469 53.9,-2.75 18.38,-1.309 36.34,-3.52 53.88,-6.668 17.54,-3.122 33.13,-8.27 46.84,-15.383 13.66,-7.168 24.71,-17 33.12,-29.547 8.41,-12.57 12.62,-28.852 12.62,-48.813 0,-18.57 -4.62,-36.539 -13.9,-53.968 -9.27,-17.391 -22.58,-32.891 -39.98,-46.4301 -17.4,-13.582 -38.7,-24.4218 -63.92,-32.5625 -25.23,-8.1171 -53.69,-12.1796 -85.35,-12.1796 -31.63,0 -59.3,3.121 -82.95,9.4296 -23.66,6.2735 -43.35,14.6836 -59.02,25.25 -15.67,10.5625 -27.45,22.7422 -35.27,36.5899 -7.85,13.8637 -11.78,28.3207 -11.78,43.4607 0,21.41 6.71,39.531 20.1,54.383 13.39,14.84 31.79,26.68 55.18,35.539 -12.83,5.688 -23.02,13.328 -30.59,22.891 -7.55,9.558 -11.34,22.488 -11.34,38.769 0,6.27 1.14,12.758 3.43,19.449 2.28,6.719 5.79,13.442 10.5,20.129 4.7,6.723 10.46,13.082 17.31,19.071 6.83,5.992 14.81,11.261 23.95,15.832 -21.39,11.988 -38.06,27.898 -50.03,47.75 -11.98,19.82 -17.96,42.867 -17.96,69.129 0,21.129 4.06,40.328 12.17,57.589 8.12,17.282 19.46,31.969 33.99,44.102 14.56,12.148 31.87,21.488 51.98,28.059 20.1,6.558 42.13,9.851 66.08,9.851 18.81,0 36.32,-2.094 52.59,-6.222 16.26,-4.122 31.07,-10.2 44.5,-18.211 h 117.6"
         style="fill:#46474c;fill-opacity:1;fill-rule:nonzero;stroke:none"
         id="path106" /><path
         d="m 6644.11,386.172 c 15.39,0 28.92,2.137 40.62,6.43 11.69,4.269 21.52,10.257 29.51,17.98 7.96,7.688 13.95,16.887 17.96,27.598 3.98,10.699 5.99,22.492 5.99,35.34 0,26.539 -8.05,47.671 -24.17,63.359 -16.1,15.691 -39.43,23.551 -69.91,23.551 -30.8,0 -54.24,-7.86 -70.37,-23.551 -16.12,-15.688 -24.17,-36.82 -24.17,-63.359 0,-12.848 2.07,-24.641 6.22,-35.34 4.12,-10.711 10.18,-19.91 18.18,-27.598 7.96,-7.723 17.81,-13.711 29.51,-17.98 11.67,-4.293 25.23,-6.43 40.63,-6.43 z M 6781.37,150.68 c 0,10.562 -2.98,19.121 -8.96,25.699 -5.99,6.551 -14.07,11.711 -24.17,15.41 -10.14,3.711 -21.89,6.359 -35.28,7.922 -13.42,1.559 -27.59,2.789 -42.57,3.621 -14.96,0.867 -30.13,1.727 -45.52,2.598 -15.4,0.832 -30.25,2.261 -44.5,4.261 -15.95,-7.41 -29.01,-16.75 -39.12,-28.043 -10.13,-11.257 -15.2,-24.468 -15.2,-39.609 0,-9.687 2.5,-18.758 7.49,-27.18 4.98,-8.41 12.61,-15.6871 22.88,-21.8199 10.28,-6.1289 23.17,-10.9883 38.71,-14.5782 15.54,-3.5703 33.86,-5.3515 54.96,-5.3515 20.52,0 38.93,1.8594 55.16,5.5703 16.26,3.7109 30.01,9.0117 41.29,15.832 11.25,6.8593 19.88,15.0003 25.87,24.4293 5.98,9.411 8.96,19.84 8.96,31.239 z m 77.43,440.129 v -28.227 c 0,-9.422 -5.98,-15.422 -17.99,-18.012 l -49.17,-6.41 c 9.69,-18.84 14.54,-39.66 14.54,-62.519 0,-21.11 -4.07,-40.301 -12.17,-57.559 -8.13,-17.293 -19.32,-32.062 -33.58,-44.32 -14.25,-12.293 -31.37,-21.723 -51.31,-28.274 -19.97,-6.566 -41.65,-9.828 -65.01,-9.828 -20.25,0 -39.35,2.422 -57.31,7.27 -9.13,-5.711 -16.12,-11.789 -20.97,-18.2 -4.84,-6.421 -7.26,-12.91 -7.26,-19.48 0,-10.27 4.21,-18.07 12.62,-23.328 8.4,-5.313 19.46,-9.063 33.12,-11.352 13.7,-2.289 29.33,-3.711 46.84,-4.3 17.54,-0.551 35.49,-1.469 53.9,-2.75 18.38,-1.309 36.34,-3.52 53.88,-6.668 17.54,-3.122 33.13,-8.27 46.84,-15.383 13.66,-7.168 24.71,-17 33.12,-29.547 8.41,-12.57 12.62,-28.852 12.62,-48.813 0,-18.57 -4.62,-36.539 -13.9,-53.968 -9.27,-17.391 -22.58,-32.891 -39.98,-46.4301 -17.4,-13.582 -38.7,-24.4218 -63.92,-32.5625 -25.23,-8.1171 -53.69,-12.1796 -85.35,-12.1796 -31.63,0 -59.3,3.121 -82.95,9.4296 -23.66,6.2735 -43.35,14.6836 -59.02,25.25 -15.67,10.5625 -27.45,22.7422 -35.27,36.5899 -7.85,13.8637 -11.78,28.3207 -11.78,43.4607 0,21.41 6.71,39.531 20.1,54.383 13.39,14.84 31.79,26.68 55.18,35.539 -12.83,5.688 -23.02,13.328 -30.59,22.891 -7.55,9.558 -11.34,22.488 -11.34,38.769 0,6.27 1.14,12.758 3.43,19.449 2.28,6.719 5.79,13.442 10.5,20.129 4.7,6.723 10.46,13.082 17.31,19.071 6.83,5.992 14.81,11.261 23.95,15.832 -21.39,11.988 -38.06,27.898 -50.03,47.75 -11.98,19.82 -17.96,42.867 -17.96,69.129 0,21.129 4.06,40.328 12.17,57.589 8.12,17.282 19.46,31.969 33.99,44.102 14.56,12.148 31.87,21.488 51.98,28.059 20.1,6.558 42.13,9.851 66.08,9.851 18.81,0 36.32,-2.094 52.59,-6.222 16.26,-4.122 31.07,-10.2 44.5,-18.211 z"
         style="fill:none;stroke:#ffffff;stroke-width:20;stroke-linecap:butt;stroke-linejoin:miter;stroke-miterlimit:10;stroke-dasharray:none;stroke-opacity:1"
         id="path108" /><path
         d="m 7010.19,521.051 c 13.67,29.66 30.49,52.879 50.45,69.57 19.96,16.699 44.33,25.039 73.14,25.039 9.11,0 17.87,-1.012 26.28,-2.988 8.41,-2 15.9,-5.16 22.47,-9.422 l -5.56,-56.949 c -1.7,-7.141 -5.99,-10.699 -12.83,-10.699 -3.99,0 -9.84,0.859 -17.55,2.558 -7.68,1.711 -16.4,2.57 -26.09,2.57 -13.67,0 -25.87,-2.011 -36.56,-6 -10.68,-3.98 -20.23,-9.921 -28.64,-17.75 -8.42,-7.871 -15.99,-17.558 -22.67,-29.128 -6.71,-11.571 -12.75,-24.75 -18.18,-39.614 V 174.23 h -76.55 v 433.731 h 43.61 c 8.27,0 13.97,-1.59 17.12,-4.711 3.12,-3.148 5.26,-8.559 6.4,-16.281 l 5.16,-65.918"
         style="fill:#46474c;fill-opacity:1;fill-rule:nonzero;stroke:none"
         id="path110" /><path
         d="m 7010.19,521.051 c 13.67,29.66 30.49,52.879 50.45,69.57 19.96,16.699 44.33,25.039 73.14,25.039 9.11,0 17.87,-1.012 26.28,-2.988 8.41,-2 15.9,-5.16 22.47,-9.422 l -5.56,-56.949 c -1.7,-7.141 -5.99,-10.699 -12.83,-10.699 -3.99,0 -9.84,0.859 -17.55,2.558 -7.68,1.711 -16.4,2.57 -26.09,2.57 -13.67,0 -25.87,-2.011 -36.56,-6 -10.68,-3.98 -20.23,-9.921 -28.64,-17.75 -8.42,-7.871 -15.99,-17.558 -22.67,-29.128 -6.71,-11.571 -12.75,-24.75 -18.18,-39.614 V 174.23 h -76.55 v 433.731 h 43.61 c 8.27,0 13.97,-1.59 17.12,-4.711 3.12,-3.148 5.26,-8.559 6.4,-16.281 z"
         style="fill:none;stroke:#ffffff;stroke-width:20;stroke-linecap:butt;stroke-linejoin:miter;stroke-miterlimit:10;stroke-dasharray:none;stroke-opacity:1"
         id="path112" /><path
         d="m 7414.33,227.762 c 42.76,0 74.71,14.347 95.81,43.027 21.1,28.691 31.66,68.723 31.66,120.082 0,51.649 -10.56,91.91 -31.66,120.75 -21.1,28.828 -53.05,43.238 -95.81,43.238 -21.66,0 -40.54,-3.699 -56.66,-11.129 -16.09,-7.441 -29.51,-18.14 -40.2,-32.109 -10.7,-13.992 -18.66,-31.191 -23.95,-51.59 -5.26,-20.41 -7.91,-43.449 -7.91,-69.16 0,-51.359 10.61,-91.391 31.86,-120.082 21.24,-28.68 53.54,-43.027 96.86,-43.027 z m 0,387.027 c 31.66,0 60.17,-5.269 85.54,-15.828 25.39,-10.57 47.05,-25.539 65.01,-44.961 17.96,-19.41 31.72,-42.871 41.27,-70.41 9.55,-27.57 14.33,-58.32 14.33,-92.27 0,-34.261 -4.78,-65.09 -14.33,-92.488 -9.55,-27.402 -23.31,-50.812 -41.27,-70.211 -17.96,-19.43 -39.62,-34.351 -65.01,-44.742 -25.37,-10.43 -53.88,-15.629 -85.54,-15.629 -31.9,0 -60.64,5.199 -86.17,15.629 -25.51,10.391 -47.26,25.312 -65.22,44.742 -17.96,19.399 -31.71,42.809 -41.26,70.211 -9.55,27.398 -14.33,58.227 -14.33,92.488 0,33.95 4.78,64.7 14.33,92.27 9.55,27.539 23.3,51 41.26,70.41 17.96,19.422 39.71,34.391 65.22,44.961 25.53,10.559 54.27,15.828 86.17,15.828"
         style="fill:#46474c;fill-opacity:1;fill-rule:nonzero;stroke:none"
         id="path114" /><path
         d="m 7414.33,227.762 c 42.76,0 74.71,14.347 95.81,43.027 21.1,28.691 31.66,68.723 31.66,120.082 0,51.649 -10.56,91.91 -31.66,120.75 -21.1,28.828 -53.05,43.238 -95.81,43.238 -21.66,0 -40.54,-3.699 -56.66,-11.129 -16.09,-7.441 -29.51,-18.14 -40.2,-32.109 -10.7,-13.992 -18.66,-31.191 -23.95,-51.59 -5.26,-20.41 -7.91,-43.449 -7.91,-69.16 0,-51.359 10.61,-91.391 31.86,-120.082 21.24,-28.68 53.54,-43.027 96.86,-43.027 z m 0,387.027 c 31.66,0 60.17,-5.269 85.54,-15.828 25.39,-10.57 47.05,-25.539 65.01,-44.961 17.96,-19.41 31.72,-42.871 41.27,-70.41 9.55,-27.57 14.33,-58.32 14.33,-92.27 0,-34.261 -4.78,-65.09 -14.33,-92.488 -9.55,-27.402 -23.31,-50.812 -41.27,-70.211 -17.96,-19.43 -39.62,-34.351 -65.01,-44.742 -25.37,-10.43 -53.88,-15.629 -85.54,-15.629 -31.9,0 -60.64,5.199 -86.17,15.629 -25.51,10.391 -47.26,25.312 -65.22,44.742 -17.96,19.399 -31.71,42.809 -41.26,70.211 -9.55,27.398 -14.33,58.227 -14.33,92.488 0,33.95 4.78,64.7 14.33,92.27 9.55,27.539 23.3,51 41.26,70.41 17.96,19.422 39.71,34.391 65.22,44.961 25.53,10.559 54.27,15.828 86.17,15.828 z"
         style="fill:none;stroke:#ffffff;stroke-width:20;stroke-linecap:butt;stroke-linejoin:miter;stroke-miterlimit:10;stroke-dasharray:none;stroke-opacity:1"
         id="path116" /><path
         d="m 7899.28,227.762 c 42.77,0 74.7,14.347 95.8,43.027 21.12,28.691 31.66,68.723 31.66,120.082 0,51.649 -10.54,91.91 -31.66,120.75 -21.1,28.828 -53.03,43.238 -95.8,43.238 -21.67,0 -40.55,-3.699 -56.67,-11.129 -16.09,-7.441 -29.51,-18.14 -40.2,-32.109 -10.69,-13.992 -18.66,-31.191 -23.95,-51.59 -5.25,-20.41 -7.9,-43.449 -7.9,-69.16 0,-51.359 10.61,-91.391 31.85,-120.082 21.25,-28.68 53.54,-43.027 96.87,-43.027 z m 0,387.027 c 31.65,0 60.17,-5.269 85.53,-15.828 25.4,-10.57 47.06,-25.539 65.02,-44.961 17.96,-19.41 31.71,-42.871 41.26,-70.41 9.55,-27.57 14.33,-58.32 14.33,-92.27 0,-34.261 -4.78,-65.09 -14.33,-92.488 -9.55,-27.402 -23.3,-50.812 -41.26,-70.211 -17.96,-19.43 -39.62,-34.351 -65.02,-44.742 -25.36,-10.43 -53.88,-15.629 -85.53,-15.629 -31.91,0 -60.64,5.199 -86.18,15.629 -25.5,10.391 -47.25,25.312 -65.21,44.742 -17.95,19.399 -31.71,42.809 -41.26,70.211 -9.55,27.398 -14.34,58.227 -14.34,92.488 0,33.95 4.79,64.7 14.34,92.27 9.55,27.539 23.31,51 41.26,70.41 17.96,19.422 39.71,34.391 65.21,44.961 25.54,10.559 54.27,15.828 86.18,15.828"
         style="fill:#46474c;fill-opacity:1;fill-rule:nonzero;stroke:none"
         id="path118" /><path
         d="m 7899.28,227.762 c 42.77,0 74.7,14.347 95.8,43.027 21.12,28.691 31.66,68.723 31.66,120.082 0,51.649 -10.54,91.91 -31.66,120.75 -21.1,28.828 -53.03,43.238 -95.8,43.238 -21.67,0 -40.55,-3.699 -56.67,-11.129 -16.09,-7.441 -29.51,-18.14 -40.2,-32.109 -10.69,-13.992 -18.66,-31.191 -23.95,-51.59 -5.25,-20.41 -7.9,-43.449 -7.9,-69.16 0,-51.359 10.61,-91.391 31.85,-120.082 21.25,-28.68 53.54,-43.027 96.87,-43.027 z m 0,387.027 c 31.65,0 60.17,-5.269 85.53,-15.828 25.4,-10.57 47.06,-25.539 65.02,-44.961 17.96,-19.41 31.71,-42.871 41.26,-70.41 9.55,-27.57 14.33,-58.32 14.33,-92.27 0,-34.261 -4.78,-65.09 -14.33,-92.488 -9.55,-27.402 -23.3,-50.812 -41.26,-70.211 -17.96,-19.43 -39.62,-34.351 -65.02,-44.742 -25.36,-10.43 -53.88,-15.629 -85.53,-15.629 -31.91,0 -60.64,5.199 -86.18,15.629 -25.5,10.391 -47.25,25.312 -65.21,44.742 -17.95,19.399 -31.71,42.809 -41.26,70.211 -9.55,27.398 -14.34,58.227 -14.34,92.488 0,33.95 4.79,64.7 14.34,92.27 9.55,27.539 23.31,51 41.26,70.41 17.96,19.422 39.71,34.391 65.21,44.961 25.54,10.559 54.27,15.828 86.18,15.828 z"
         style="fill:none;stroke:#ffffff;stroke-width:20;stroke-linecap:butt;stroke-linejoin:miter;stroke-miterlimit:10;stroke-dasharray:none;stroke-opacity:1"
         id="path120" /><path
         d="m 8201.65,174.23 v 433.731 h 45.75 c 10.84,0 17.55,-5.301 20.1,-15.859 l 5.57,-44.52 c 15.96,19.68 33.92,35.816 53.88,48.387 19.96,12.551 43.04,18.82 69.3,18.82 29.07,0 52.65,-8.117 70.78,-24.391 18.1,-16.277 31.13,-38.25 39.12,-65.949 6.27,15.723 14.34,29.262 24.17,40.692 9.82,11.41 20.88,20.828 33.13,28.238 12.25,7.441 25.31,12.851 39.15,16.281 13.81,3.43 27.87,5.129 42.12,5.129 22.8,0 43.11,-3.617 60.96,-10.898 17.78,-7.282 32.91,-17.922 45.32,-31.911 12.39,-13.968 21.86,-31.171 28.43,-51.582 6.57,-20.429 9.83,-43.757 9.83,-70.019 V 174.23 h -76.54 v 276.149 c 0,33.992 -7.41,59.742 -22.25,77.301 -14.81,17.539 -36.2,26.32 -64.15,26.32 -12.53,0 -24.45,-2.211 -35.69,-6.641 -11.28,-4.429 -21.19,-10.898 -29.74,-19.488 -8.55,-8.551 -15.32,-19.312 -20.3,-32.301 -5.01,-12.988 -7.49,-28.039 -7.49,-45.191 V 174.23 h -76.57 v 276.149 c 0,34.82 -6.98,60.801 -20.94,77.941 -13.97,17.11 -34.36,25.68 -61.17,25.68 -18.82,0 -36.19,-5.078 -52.18,-15.199 -15.95,-10.141 -30.65,-23.91 -44.04,-41.309 V 174.23 h -76.55"
         style="fill:#46474c;fill-opacity:1;fill-rule:nonzero;stroke:none"
         id="path122" /><path
         d="m 8201.65,174.23 v 433.731 h 45.75 c 10.84,0 17.55,-5.301 20.1,-15.859 l 5.57,-44.52 c 15.96,19.68 33.92,35.816 53.88,48.387 19.96,12.551 43.04,18.82 69.3,18.82 29.07,0 52.65,-8.117 70.78,-24.391 18.1,-16.277 31.13,-38.25 39.12,-65.949 6.27,15.723 14.34,29.262 24.17,40.692 9.82,11.41 20.88,20.828 33.13,28.238 12.25,7.441 25.31,12.851 39.15,16.281 13.81,3.43 27.87,5.129 42.12,5.129 22.8,0 43.11,-3.617 60.96,-10.898 17.78,-7.282 32.91,-17.922 45.32,-31.911 12.39,-13.968 21.86,-31.171 28.43,-51.582 6.57,-20.429 9.83,-43.757 9.83,-70.019 V 174.23 h -76.54 v 276.149 c 0,33.992 -7.41,59.742 -22.25,77.301 -14.81,17.539 -36.2,26.32 -64.15,26.32 -12.53,0 -24.45,-2.211 -35.69,-6.641 -11.28,-4.429 -21.19,-10.898 -29.74,-19.488 -8.55,-8.551 -15.32,-19.312 -20.3,-32.301 -5.01,-12.988 -7.49,-28.039 -7.49,-45.191 V 174.23 h -76.57 v 276.149 c 0,34.82 -6.98,60.801 -20.94,77.941 -13.97,17.11 -34.36,25.68 -61.17,25.68 -18.82,0 -36.19,-5.078 -52.18,-15.199 -15.95,-10.141 -30.65,-23.91 -44.04,-41.309 V 174.23 Z"
         style="fill:none;stroke:#ffffff;stroke-width:20;stroke-linecap:butt;stroke-linejoin:miter;stroke-miterlimit:10;stroke-dasharray:none;stroke-opacity:1"
         id="path124" /><path
         d="M 8985.55,607.961 V 174.23 h -76.12 v 433.731 z m 16.26,136.141 c 0,-7.422 -1.5,-14.332 -4.48,-20.77 -3.01,-6.41 -6.98,-12.133 -11.97,-17.121 -5.01,-4.992 -10.86,-8.91 -17.54,-11.781 -6.71,-2.84 -13.75,-4.27 -21.17,-4.27 -7.43,0 -14.33,1.43 -20.74,4.27 -6.42,2.871 -12.05,6.789 -16.9,11.781 -4.85,4.988 -8.68,10.711 -11.55,17.121 -2.85,6.438 -4.26,13.348 -4.26,20.77 0,7.418 1.41,14.5 4.26,21.187 2.87,6.723 6.7,12.57 11.55,17.563 4.85,4.988 10.48,8.91 16.9,11.777 6.41,2.84 13.31,4.269 20.74,4.269 7.42,0 14.46,-1.429 21.17,-4.269 6.68,-2.867 12.53,-6.789 17.54,-11.777 4.99,-4.993 8.96,-10.84 11.97,-17.563 2.98,-6.687 4.48,-13.769 4.48,-21.187"
         style="fill:#46474c;fill-opacity:1;fill-rule:nonzero;stroke:none"
         id="path126" /><path
         d="M 8985.55,607.961 V 174.23 h -76.12 v 433.731 z m 16.26,136.141 c 0,-7.422 -1.5,-14.332 -4.48,-20.77 -3.01,-6.41 -6.98,-12.133 -11.97,-17.121 -5.01,-4.992 -10.86,-8.91 -17.54,-11.781 -6.71,-2.84 -13.75,-4.27 -21.17,-4.27 -7.43,0 -14.33,1.43 -20.74,4.27 -6.42,2.871 -12.05,6.789 -16.9,11.781 -4.85,4.988 -8.68,10.711 -11.55,17.121 -2.85,6.438 -4.26,13.348 -4.26,20.77 0,7.418 1.41,14.5 4.26,21.187 2.87,6.723 6.7,12.57 11.55,17.563 4.85,4.988 10.48,8.91 16.9,11.777 6.41,2.84 13.31,4.269 20.74,4.269 7.42,0 14.46,-1.429 21.17,-4.269 6.68,-2.867 12.53,-6.789 17.54,-11.777 4.99,-4.993 8.96,-10.84 11.97,-17.563 2.98,-6.687 4.48,-13.769 4.48,-21.187 z"
         style="fill:none;stroke:#ffffff;stroke-width:20;stroke-linecap:butt;stroke-linejoin:miter;stroke-miterlimit:10;stroke-dasharray:none;stroke-opacity:1"
         id="path128" /><path
         d="m 9182.3,545.02 c 9.4,10.539 19.37,20.121 29.92,28.679 10.56,8.563 21.75,15.922 33.59,22.063 11.83,6.129 24.39,10.84 37.64,14.129 13.25,3.257 27.59,4.898 42.99,4.898 23.64,0 44.52,-3.91 62.65,-11.758 18.09,-7.859 33.21,-18.98 45.33,-33.402 12.11,-14.41 21.3,-31.75 27.59,-52.008 6.27,-20.262 9.41,-42.68 9.41,-67.242 V 174.23 h -76.57 v 276.149 c 0,32.851 -7.49,58.312 -22.44,76.441 -14.98,18.121 -37.73,27.18 -68.22,27.18 -22.53,0 -43.54,-5.41 -63.09,-16.25 -19.52,-10.879 -37.56,-25.57 -54.1,-44.102 V 174.23 h -76.54 v 433.731 h 45.75 c 10.83,0 17.53,-5.301 20.1,-15.859 l 5.99,-47.082"
         style="fill:#46474c;fill-opacity:1;fill-rule:nonzero;stroke:none"
         id="path130" /><path
         d="m 9182.3,545.02 c 9.4,10.539 19.37,20.121 29.92,28.679 10.56,8.563 21.75,15.922 33.59,22.063 11.83,6.129 24.39,10.84 37.64,14.129 13.25,3.257 27.59,4.898 42.99,4.898 23.64,0 44.52,-3.91 62.65,-11.758 18.09,-7.859 33.21,-18.98 45.33,-33.402 12.11,-14.41 21.3,-31.75 27.59,-52.008 6.27,-20.262 9.41,-42.68 9.41,-67.242 V 174.23 h -76.57 v 276.149 c 0,32.851 -7.49,58.312 -22.44,76.441 -14.98,18.121 -37.73,27.18 -68.22,27.18 -22.53,0 -43.54,-5.41 -63.09,-16.25 -19.52,-10.879 -37.56,-25.57 -54.1,-44.102 V 174.23 h -76.54 v 433.731 h 45.75 c 10.83,0 17.53,-5.301 20.1,-15.859 z"
         style="fill:none;stroke:#ffffff;stroke-width:20;stroke-linecap:butt;stroke-linejoin:miter;stroke-miterlimit:10;stroke-dasharray:none;stroke-opacity:1"
         id="path132" /><path
         d="m 9738.69,386.172 c 15.4,0 28.92,2.137 40.62,6.43 11.69,4.269 21.52,10.257 29.51,17.98 7.96,7.688 13.95,16.887 17.96,27.598 3.99,10.699 5.99,22.492 5.99,35.34 0,26.539 -8.05,47.671 -24.17,63.359 -16.1,15.691 -39.43,23.551 -69.91,23.551 -30.8,0 -54.24,-7.86 -70.37,-23.551 -16.12,-15.688 -24.17,-36.82 -24.17,-63.359 0,-12.848 2.07,-24.641 6.22,-35.34 4.12,-10.711 10.19,-19.91 18.18,-27.598 7.96,-7.723 17.82,-13.711 29.51,-17.98 11.67,-4.293 25.23,-6.43 40.63,-6.43 z M 9875.95,150.68 c 0,10.562 -2.98,19.121 -8.96,25.699 -5.99,6.551 -14.07,11.711 -24.17,15.41 -10.14,3.711 -21.89,6.359 -35.28,7.922 -13.41,1.559 -27.59,2.789 -42.57,3.621 -14.96,0.867 -30.12,1.727 -45.52,2.598 -15.4,0.832 -30.24,2.261 -44.49,4.261 -15.96,-7.41 -29.02,-16.75 -39.13,-28.043 -10.13,-11.257 -15.2,-24.468 -15.2,-39.609 0,-9.687 2.51,-18.758 7.49,-27.18 4.98,-8.41 12.62,-15.6871 22.89,-21.8199 10.27,-6.1289 23.16,-10.9883 38.7,-14.5782 15.54,-3.5703 33.86,-5.3515 54.96,-5.3515 20.52,0 38.93,1.8594 55.16,5.5703 16.26,3.7109 30.02,9.0117 41.29,15.832 11.25,6.8593 19.88,15.0003 25.87,24.4293 5.98,9.411 8.96,19.84 8.96,31.239 z m 77.43,440.129 v -28.227 c 0,-9.422 -5.98,-15.422 -17.99,-18.012 l -49.17,-6.41 c 9.69,-18.84 14.55,-39.66 14.55,-62.519 0,-21.11 -4.08,-40.301 -12.17,-57.559 -8.14,-17.293 -19.33,-32.062 -33.59,-44.32 -14.25,-12.293 -31.37,-21.723 -51.31,-28.274 -19.97,-6.566 -41.65,-9.828 -65.01,-9.828 -20.25,0 -39.35,2.422 -57.31,7.27 -9.13,-5.711 -16.11,-11.789 -20.97,-18.2 -4.84,-6.421 -7.26,-12.91 -7.26,-19.48 0,-10.27 4.21,-18.07 12.62,-23.328 8.4,-5.313 19.46,-9.063 33.13,-11.352 13.69,-2.289 29.32,-3.711 46.83,-4.3 17.55,-0.551 35.5,-1.469 53.9,-2.75 18.38,-1.309 36.34,-3.52 53.88,-6.668 17.54,-3.122 33.13,-8.27 46.84,-15.383 13.67,-7.168 24.72,-17 33.13,-29.547 8.41,-12.57 12.61,-28.852 12.61,-48.813 0,-18.57 -4.62,-36.539 -13.89,-53.968 -9.28,-17.391 -22.59,-32.891 -39.99,-46.4301 -17.4,-13.582 -38.7,-24.4218 -63.92,-32.5625 -25.23,-8.1171 -53.69,-12.1796 -85.35,-12.1796 -31.63,0 -59.3,3.121 -82.94,9.4296 -23.67,6.2735 -43.36,14.6836 -59.03,25.25 -15.67,10.5625 -27.45,22.7422 -35.27,36.5899 -7.85,13.8637 -11.78,28.3207 -11.78,43.4607 0,21.41 6.71,39.531 20.1,54.383 13.4,14.84 31.79,26.68 55.18,35.539 -12.83,5.688 -23.02,13.328 -30.59,22.891 -7.55,9.558 -11.34,22.488 -11.34,38.769 0,6.27 1.14,12.758 3.43,19.449 2.28,6.719 5.79,13.442 10.5,20.129 4.7,6.723 10.46,13.082 17.31,19.071 6.83,5.992 14.81,11.261 23.95,15.832 -21.38,11.988 -38.06,27.898 -50.03,47.75 -11.98,19.82 -17.96,42.867 -17.96,69.129 0,21.129 4.06,40.328 12.17,57.589 8.12,17.282 19.46,31.969 33.99,44.102 14.56,12.148 31.88,21.488 51.98,28.059 20.11,6.558 42.13,9.851 66.08,9.851 18.81,0 36.33,-2.094 52.59,-6.222 16.26,-4.122 31.08,-10.2 44.5,-18.211 h 117.6"
         style="fill:#46474c;fill-opacity:1;fill-rule:nonzero;stroke:none"
         id="path134" /><path
         d="m 9738.69,386.172 c 15.4,0 28.92,2.137 40.62,6.43 11.69,4.269 21.52,10.257 29.51,17.98 7.96,7.688 13.95,16.887 17.96,27.598 3.99,10.699 5.99,22.492 5.99,35.34 0,26.539 -8.05,47.671 -24.17,63.359 -16.1,15.691 -39.43,23.551 -69.91,23.551 -30.8,0 -54.24,-7.86 -70.37,-23.551 -16.12,-15.688 -24.17,-36.82 -24.17,-63.359 0,-12.848 2.07,-24.641 6.22,-35.34 4.12,-10.711 10.19,-19.91 18.18,-27.598 7.96,-7.723 17.82,-13.711 29.51,-17.98 11.67,-4.293 25.23,-6.43 40.63,-6.43 z M 9875.95,150.68 c 0,10.562 -2.98,19.121 -8.96,25.699 -5.99,6.551 -14.07,11.711 -24.17,15.41 -10.14,3.711 -21.89,6.359 -35.28,7.922 -13.41,1.559 -27.59,2.789 -42.57,3.621 -14.96,0.867 -30.12,1.727 -45.52,2.598 -15.4,0.832 -30.24,2.261 -44.49,4.261 -15.96,-7.41 -29.02,-16.75 -39.13,-28.043 -10.13,-11.257 -15.2,-24.468 -15.2,-39.609 0,-9.687 2.51,-18.758 7.49,-27.18 4.98,-8.41 12.62,-15.6871 22.89,-21.8199 10.27,-6.1289 23.16,-10.9883 38.7,-14.5782 15.54,-3.5703 33.86,-5.3515 54.96,-5.3515 20.52,0 38.93,1.8594 55.16,5.5703 16.26,3.7109 30.02,9.0117 41.29,15.832 11.25,6.8593 19.88,15.0003 25.87,24.4293 5.98,9.411 8.96,19.84 8.96,31.239 z m 77.43,440.129 v -28.227 c 0,-9.422 -5.98,-15.422 -17.99,-18.012 l -49.17,-6.41 c 9.69,-18.84 14.55,-39.66 14.55,-62.519 0,-21.11 -4.08,-40.301 -12.17,-57.559 -8.14,-17.293 -19.33,-32.062 -33.59,-44.32 -14.25,-12.293 -31.37,-21.723 -51.31,-28.274 -19.97,-6.566 -41.65,-9.828 -65.01,-9.828 -20.25,0 -39.35,2.422 -57.31,7.27 -9.13,-5.711 -16.11,-11.789 -20.97,-18.2 -4.84,-6.421 -7.26,-12.91 -7.26,-19.48 0,-10.27 4.21,-18.07 12.62,-23.328 8.4,-5.313 19.46,-9.063 33.13,-11.352 13.69,-2.289 29.32,-3.711 46.83,-4.3 17.55,-0.551 35.5,-1.469 53.9,-2.75 18.38,-1.309 36.34,-3.52 53.88,-6.668 17.54,-3.122 33.13,-8.27 46.84,-15.383 13.67,-7.168 24.72,-17 33.13,-29.547 8.41,-12.57 12.61,-28.852 12.61,-48.813 0,-18.57 -4.62,-36.539 -13.89,-53.968 -9.28,-17.391 -22.59,-32.891 -39.99,-46.4301 -17.4,-13.582 -38.7,-24.4218 -63.92,-32.5625 -25.23,-8.1171 -53.69,-12.1796 -85.35,-12.1796 -31.63,0 -59.3,3.121 -82.94,9.4296 -23.67,6.2735 -43.36,14.6836 -59.03,25.25 -15.67,10.5625 -27.45,22.7422 -35.27,36.5899 -7.85,13.8637 -11.78,28.3207 -11.78,43.4607 0,21.41 6.71,39.531 20.1,54.383 13.4,14.84 31.79,26.68 55.18,35.539 -12.83,5.688 -23.02,13.328 -30.59,22.891 -7.55,9.558 -11.34,22.488 -11.34,38.769 0,6.27 1.14,12.758 3.43,19.449 2.28,6.719 5.79,13.442 10.5,20.129 4.7,6.723 10.46,13.082 17.31,19.071 6.83,5.992 14.81,11.261 23.95,15.832 -21.38,11.988 -38.06,27.898 -50.03,47.75 -11.98,19.82 -17.96,42.867 -17.96,69.129 0,21.129 4.06,40.328 12.17,57.589 8.12,17.282 19.46,31.969 33.99,44.102 14.56,12.148 31.88,21.488 51.98,28.059 20.11,6.558 42.13,9.851 66.08,9.851 18.81,0 36.33,-2.094 52.59,-6.222 16.26,-4.122 31.08,-10.2 44.5,-18.211 z"
         style="fill:none;stroke:#ffffff;stroke-width:20;stroke-linecap:butt;stroke-linejoin:miter;stroke-miterlimit:10;stroke-dasharray:none;stroke-opacity:1"
         id="path136" /><path
         d="m 3987.6,2465.77 c 4.35,-141.42 10.85,-432.94 0,-715.79 280.34,-32.62 519.39,337.22 312.93,583.06 -71.71,87.03 -197.76,139.24 -312.93,132.73 z m -358.56,-15.23 c 21.71,30.45 49.97,58.73 82.57,82.67 -26.09,137.06 -56.51,358.97 15.21,380.73 69.54,21.76 204.27,-217.57 243.39,-287.19 91.28,13.07 189.06,6.53 273.82,-10.87 2.18,-2.18 4.35,-2.18 8.7,-2.18 13.04,21.76 197.74,313.28 276,282.83 73.89,-28.27 13.02,-282.83 -23.92,-413.36 54.34,-47.88 99.96,-108.78 123.88,-184.94 60.83,-187.09 -2.18,-409 -141.26,-546.06 -106.5,-106.61 -239.05,-154.49 -375.96,-154.49 -43.48,0 -86.92,6.53 -130.4,15.24 -13.03,-228.43 -41.27,-428.6 -93.43,-511.27 -17.39,-26.12 -45.65,-39.17 -73.9,-39.17 -15.2,0 -121.69,-13.04 -136.9,-4.33 -41.3,26.09 -52.16,80.49 -26.09,121.81 69.54,104.43 84.75,678.81 73.89,1137.86 -21.74,-6.52 -47.8,-4.36 -71.72,10.87 -39.12,26.11 -49.98,80.51 -23.88,121.85"
         style="fill:#d96f7d;fill-opacity:1;fill-rule:nonzero;stroke:none"
         id="path138" /><path
         d="m 3987.6,2465.77 c 4.35,-141.42 10.85,-432.94 0,-715.79 280.34,-32.62 519.39,337.22 312.93,583.06 -71.71,87.03 -197.76,139.24 -312.93,132.73 z m -358.56,-15.23 c 21.71,30.45 49.97,58.73 82.57,82.67 -26.09,137.06 -56.51,358.97 15.21,380.73 69.54,21.76 204.27,-217.57 243.39,-287.19 91.28,13.07 189.06,6.53 273.82,-10.87 2.18,-2.18 4.35,-2.18 8.7,-2.18 13.04,21.76 197.74,313.28 276,282.83 73.89,-28.27 13.02,-282.83 -23.92,-413.36 54.34,-47.88 99.96,-108.78 123.88,-184.94 60.83,-187.09 -2.18,-409 -141.26,-546.06 -106.5,-106.61 -239.05,-154.49 -375.96,-154.49 -43.48,0 -86.92,6.53 -130.4,15.24 -13.03,-228.43 -41.27,-428.6 -93.43,-511.27 -17.39,-26.12 -45.65,-39.17 -73.9,-39.17 -15.2,0 -121.69,-13.04 -136.9,-4.33 -41.3,26.09 -52.16,80.49 -26.09,121.81 69.54,104.43 84.75,678.81 73.89,1137.86 -21.74,-6.52 -47.8,-4.36 -71.72,10.87 -39.12,26.11 -49.98,80.51 -23.88,121.85 z"
         style="fill:none;stroke:#ffffff;stroke-width:40;stroke-linecap:butt;stroke-linejoin:miter;stroke-miterlimit:10;stroke-dasharray:none;stroke-opacity:1"
         id="path140" /><path
         d="m 5428.46,1850.06 c -63.02,56.57 -182.54,165.33 -310.76,26.1 -141.26,-150.11 -173.86,-452.53 -60.84,-576.52 69.54,-76.16 247.75,-21.77 347.71,52.22 4.35,152.28 10.85,343.74 23.89,498.2 z m 284.7,165.33 c -21.74,-89.18 -54.34,-772.32 -39.12,-865.88 6.52,-47.86 -26.08,-91.36 -73.88,-100.07 -4.35,0 -56.5,-6.54 -60.86,-6.54 -41.3,0 -126.04,21.76 -132.55,63.11 -2.18,10.87 -2.18,30.45 -2.18,60.9 -136.91,-76.13 -247.75,-106.6 -334.67,-106.6 -126.06,0 -208.63,58.75 -254.26,110.96 -173.85,191.46 -143.43,596.13 60.84,815.85 152.14,161 360.77,180.59 573.72,56.57 4.36,34.81 10.88,58.75 17.38,71.8 26.1,41.33 169.5,34.81 210.8,8.69 39.13,-21.74 52.16,-69.62 34.78,-108.79"
         style="fill:#d96f7d;fill-opacity:1;fill-rule:nonzero;stroke:none"
         id="path142" /><path
         d="m 5428.46,1850.06 c -63.02,56.57 -182.54,165.33 -310.76,26.1 -141.26,-150.11 -173.86,-452.53 -60.84,-576.52 69.54,-76.16 247.75,-21.77 347.71,52.22 4.35,152.28 10.85,343.74 23.89,498.2 z m 284.7,165.33 c -21.74,-89.18 -54.34,-772.32 -39.12,-865.88 6.52,-47.86 -26.08,-91.36 -73.88,-100.07 -4.35,0 -56.5,-6.54 -60.86,-6.54 -41.3,0 -126.04,21.76 -132.55,63.11 -2.18,10.87 -2.18,30.45 -2.18,60.9 -136.91,-76.13 -247.75,-106.6 -334.67,-106.6 -126.06,0 -208.63,58.75 -254.26,110.96 -173.85,191.46 -143.43,596.13 60.84,815.85 152.14,161 360.77,180.59 573.72,56.57 4.36,34.81 10.88,58.75 17.38,71.8 26.1,41.33 169.5,34.81 210.8,8.69 39.13,-21.74 52.16,-69.62 34.78,-108.79 z"
         style="fill:none;stroke:#ffffff;stroke-width:40;stroke-linecap:butt;stroke-linejoin:miter;stroke-miterlimit:10;stroke-dasharray:none;stroke-opacity:1"
         id="path144" /><path
         d="m 6986.67,2043.69 c 6.53,-117.48 26.09,-737.53 -156.47,-933.34 -43.45,-45.69 -97.78,-69.63 -156.47,-69.63 -32.59,0 -132.55,15.25 -182.53,71.8 -28.27,30.47 -54.33,76.16 -78.25,126.19 -52.15,-115.3 -119.52,-202.32 -199.92,-202.32 -167.35,-10.9 -219.51,26.09 -267.31,84.84 -156.47,193.64 -128.23,676.62 -73.89,933.33 10.88,47.88 145.61,82.69 193.41,71.8 47.81,-10.87 76.07,-56.57 67.37,-104.43 -58.66,-276.3 -56.51,-672.26 36.95,-785.39 17.38,-21.77 30.41,-23.93 43.47,-23.93 43.45,0 93.43,124.01 126.03,293.71 -15.21,108.79 -21.71,224.08 -10.86,330.7 4.35,45.67 86.93,76.13 136.91,73.95 0,0 94.73,4.11 86.93,-91.36 -0.89,-10.86 0,-23.94 -2.18,-39.17 -17.39,-278.47 78.25,-530.86 130.4,-563.49 4.35,0 10.86,4.35 21.72,15.25 97.8,102.25 123.87,539.52 110.84,802.78 -4.36,47.88 36.94,67.46 84.74,71.8 47.82,2.17 86.94,-15.23 89.11,-63.09"
         style="fill:#d96f7d;fill-opacity:1;fill-rule:nonzero;stroke:none"
         id="path146" /><path
         d="m 6986.67,2043.69 c 6.53,-117.48 26.09,-737.53 -156.47,-933.34 -43.45,-45.69 -97.78,-69.63 -156.47,-69.63 -32.59,0 -132.55,15.25 -182.53,71.8 -28.27,30.47 -54.33,76.16 -78.25,126.19 -52.15,-115.3 -119.52,-202.32 -199.92,-202.32 -167.35,-10.9 -219.51,26.09 -267.31,84.84 -156.47,193.64 -128.23,676.62 -73.89,933.33 10.88,47.88 145.61,82.69 193.41,71.8 47.81,-10.87 76.07,-56.57 67.37,-104.43 -58.66,-276.3 -56.51,-672.26 36.95,-785.39 17.38,-21.77 30.41,-23.93 43.47,-23.93 43.45,0 93.43,124.01 126.03,293.71 -15.21,108.79 -21.71,224.08 -10.86,330.7 4.35,45.67 86.93,76.13 136.91,73.95 0,0 94.73,4.11 86.93,-91.36 -0.89,-10.86 0,-23.94 -2.18,-39.17 -17.39,-278.47 78.25,-530.86 130.4,-563.49 4.35,0 10.86,4.35 21.72,15.25 97.8,102.25 123.87,539.52 110.84,802.78 -4.36,47.88 36.94,67.46 84.74,71.8 47.82,2.17 86.94,-15.23 89.11,-63.09 z"
         style="fill:none;stroke:#ffffff;stroke-width:40;stroke-linecap:butt;stroke-linejoin:miter;stroke-miterlimit:10;stroke-dasharray:none;stroke-opacity:1"
         id="path148" /><path
         d="m 8242.72,2518.94 c 98.81,-40.48 174.51,-109.42 210.32,-186.75 35.26,-76.88 44.11,-157.56 32.2,-235.36 -14.53,-77.5 -47.67,-152.6 -101.73,-219.19 -52.42,-67.09 -124.71,-125.83 -210.4,-171.11 73.8,54.4 134.62,115.88 176.9,183.4 43.6,66.94 69.02,139.26 77.36,212.23 7.15,73.05 -4.47,147.25 -38.45,216.72 -33.22,69.18 -86.38,132.14 -146.2,200.06"
         style="fill:#ffffff;fill-opacity:1;fill-rule:nonzero;stroke:none"
         id="path150" /><path
         d="m 8242.72,2518.94 c 98.81,-40.48 174.51,-109.42 210.32,-186.75 35.26,-76.88 44.11,-157.56 32.2,-235.36 -14.53,-77.5 -47.67,-152.6 -101.73,-219.19 -52.42,-67.09 -124.71,-125.83 -210.4,-171.11 73.8,54.4 134.62,115.88 176.9,183.4 43.6,66.94 69.02,139.26 77.36,212.23 7.15,73.05 -4.47,147.25 -38.45,216.72 -33.22,69.18 -86.38,132.14 -146.2,200.06 z"
         style="fill:none;stroke:#ffffff;stroke-width:30;stroke-linecap:butt;stroke-linejoin:miter;stroke-miterlimit:10;stroke-dasharray:none;stroke-opacity:1"
         id="path152" /><path
         d="m 7722.04,2444.52 c 0,0 180,-70 230,-150 50,-80 90,-130 90,-280 0,0 0,-60 -10,-110 -11.44,-57.17 210,180 210,180 l -160,380 c 0,0 -190,80 -200,80 -10,0 -160,-100 -160,-100"
         style="fill:#ffffff;fill-opacity:1;fill-rule:nonzero;stroke:none"
         id="path154" /><path
         d="m 7422.04,2354.52 -10.76,-134.24 c 0,0 -9.24,-820.25 -64.24,-1033 0,0 0.66,-76.06 82.83,85.59 82.17,161.65 82.17,1081.65 82.17,1081.65 h -90"
         style="fill:#ffffff;fill-opacity:1;fill-rule:nonzero;stroke:none"
         id="path156" /><path
         d="m 7363.22,1177.47 c 18.35,43.31 23.99,89.88 28.31,136.31 5.21,46.28 7.74,92.97 10.79,139.53 4.92,93.29 8.49,186.75 11.15,280.31 6.61,187.11 9.94,374.37 22.34,562.37 20.65,-187.31 24.87,-375.62 19.39,-563.73 -3.52,-94.04 -8.89,-188.15 -20.53,-281.86 -5.9,-46.84 -12.89,-93.6 -23.06,-139.92 -4.97,-23.13 -11.37,-46.06 -18.38,-68.72 -3.22,-11.39 -8.37,-22.36 -12.5,-33.41 -4.02,-11.13 -11.94,-20.81 -17.51,-30.88"
         style="fill:#46474c;fill-opacity:1;fill-rule:nonzero;stroke:none"
         id="path158" /><path
         d="m 7363.22,1177.47 c 18.35,43.31 23.99,89.88 28.31,136.31 5.21,46.28 7.74,92.97 10.79,139.53 4.92,93.29 8.49,186.75 11.15,280.31 6.61,187.11 9.94,374.37 22.34,562.37 20.65,-187.31 24.87,-375.62 19.39,-563.73 -3.52,-94.04 -8.89,-188.15 -20.53,-281.86 -5.9,-46.84 -12.89,-93.6 -23.06,-139.92 -4.97,-23.13 -11.37,-46.06 -18.38,-68.72 -3.22,-11.39 -8.37,-22.36 -12.5,-33.41 -4.02,-11.13 -11.94,-20.81 -17.51,-30.88 z"
         style="fill:none;stroke:#ffffff;stroke-width:2.5;stroke-linecap:butt;stroke-linejoin:miter;stroke-miterlimit:10;stroke-dasharray:none;stroke-opacity:1"
         id="path160" /><path
         d="m 8457.04,1879.52 c 0,0 90,180 380,240 l -280,-730 210,-310 c 0,0 -130,0 -210,50 -2.92,1.8 -370,250 -100,750"
         style="fill:#ffffff;fill-opacity:1;fill-rule:nonzero;stroke:none"
         id="path162" /><path
         d="m 8457.04,1879.52 c 0,0 90,180 380,240 l -280,-730 210,-310 c 0,0 -130,0 -210,50 -2.92,1.8 -370,250 -100,750 z"
         style="fill:none;stroke:#ffffff;stroke-width:30;stroke-linecap:butt;stroke-linejoin:miter;stroke-miterlimit:10;stroke-dasharray:none;stroke-opacity:1"
         id="path164" /><path
         d="m 8312,2486.44 c 61.63,-31.18 110.05,-88.47 134.35,-154.96 23.95,-66.11 31.89,-136.76 27.04,-205.82 -6.44,-68.9 -24.32,-136.55 -55.26,-197.63 -29.92,-61.45 -72.25,-116.45 -123.17,-160.21 43.37,51.25 78.6,108.14 102.32,169.51 24.53,60.94 37.79,125.77 40.6,190.41 2.08,64.66 -7.35,129.48 -30.29,189.12 -22.47,59.43 -56.91,112.46 -95.59,169.58"
         style="fill:#46474c;fill-opacity:1;fill-rule:nonzero;stroke:none"
         id="path166" /><path
         d="m 8312,2486.44 c 61.63,-31.18 110.05,-88.47 134.35,-154.96 23.95,-66.11 31.89,-136.76 27.04,-205.82 -6.44,-68.9 -24.32,-136.55 -55.26,-197.63 -29.92,-61.45 -72.25,-116.45 -123.17,-160.21 43.37,51.25 78.6,108.14 102.32,169.51 24.53,60.94 37.79,125.77 40.6,190.41 2.08,64.66 -7.35,129.48 -30.29,189.12 -22.47,59.43 -56.91,112.46 -95.59,169.58 z"
         style="fill:none;stroke:#ffffff;stroke-width:7.5;stroke-linecap:butt;stroke-linejoin:miter;stroke-miterlimit:10;stroke-dasharray:none;stroke-opacity:1"
         id="path168" /><path
         d="m 8052.17,2049.76 c -0.91,54.86 -7.62,106.61 -25.98,154.12 -18.08,47.17 -45.42,90.62 -80.65,127.61 -34.76,36.73 -78.52,65.39 -126.11,87.51 -47.29,23.1 -99.15,38.23 -149.24,59.48 53.31,-8.22 107.19,-15.66 159.62,-33.69 52.31,-17.44 102.74,-45.42 144.04,-85.15 19.84,-20.51 38.45,-41.62 53.59,-66.09 14.91,-24.41 26.9,-50.8 34.01,-78.52 14.73,-55.2 11.63,-114.46 -9.28,-165.27"
         style="fill:#46474c;fill-opacity:1;fill-rule:nonzero;stroke:none"
         id="path170" /><path
         d="m 8052.17,2049.76 c -0.91,54.86 -7.62,106.61 -25.98,154.12 -18.08,47.17 -45.42,90.62 -80.65,127.61 -34.76,36.73 -78.52,65.39 -126.11,87.51 -47.29,23.1 -99.15,38.23 -149.24,59.48 53.31,-8.22 107.19,-15.66 159.62,-33.69 52.31,-17.44 102.74,-45.42 144.04,-85.15 19.84,-20.51 38.45,-41.62 53.59,-66.09 14.91,-24.41 26.9,-50.8 34.01,-78.52 14.73,-55.2 11.63,-114.46 -9.28,-165.27 z"
         style="fill:none;stroke:#ffffff;stroke-width:2.5;stroke-linecap:butt;stroke-linejoin:miter;stroke-miterlimit:10;stroke-dasharray:none;stroke-opacity:1"
         id="path172" /><path
         d="m 9832.04,2144.52 c 0,0 140,20 130,-130 -30,-120 -30,-490 -30,-660 0,0 10,-240 -80,130 -14.36,59.04 -100.01,128.47 -110,250 -33.89,292.54 90,410 90,410"
         style="fill:#ffffff;fill-opacity:1;fill-rule:nonzero;stroke:none"
         id="path174" /><path
         d="m 9832.04,2144.52 c 0,0 140,20 130,-130 -30,-120 -30,-490 -30,-660 0,0 10,-240 -80,130 -14.36,59.04 -100.01,128.47 -110,250 -33.89,292.54 90,410 90,410 z"
         style="fill:none;stroke:#ffffff;stroke-width:2.5;stroke-linecap:butt;stroke-linejoin:miter;stroke-miterlimit:10;stroke-dasharray:none;stroke-opacity:1"
         id="path176" /><path
         d="m 9522.8,1854.52 c 0,0 0,-330 -10.6,-380 0,-60 -10.59,-300 -31.78,-340 -21.19,-40 -95.34,-80 -95.34,-80 l -52.97,600 69.93,500 c 0,0 150,0 120.76,-300"
         style="fill:#ffffff;fill-opacity:1;fill-rule:nonzero;stroke:none"
         id="path178" /><path
         d="m 9522.8,1854.52 c 0,0 0,-330 -10.6,-380 0,-60 -10.59,-300 -31.78,-340 -21.19,-40 -95.34,-80 -95.34,-80 l -52.97,600 69.93,500 c 0,0 150,0 120.76,-300 z"
         style="fill:none;stroke:#ffffff;stroke-width:2.5;stroke-linecap:butt;stroke-linejoin:miter;stroke-miterlimit:10;stroke-dasharray:none;stroke-opacity:1"
         id="path180" /><path
         d="m 9058.22,1937.22 c 0,0 -231.18,-87.7 -281.18,-587.7 70,-570 -110,0 -110,0 l 90,620 301.18,-32.3"
         style="fill:#ffffff;fill-opacity:1;fill-rule:nonzero;stroke:none"
         id="path182" /><path
         d="m 9058.22,1937.22 c 0,0 -231.18,-87.7 -281.18,-587.7 70,-570 -110,0 -110,0 l 90,620 z"
         style="fill:none;stroke:#ffffff;stroke-width:30;stroke-linecap:butt;stroke-linejoin:miter;stroke-miterlimit:10;stroke-dasharray:none;stroke-opacity:1"
         id="path184" /><path
         d="m 10652,2124.52 c 0,0 280,70 180,-580 0,0 -40,-520 -320,-490 l 140,1070"
         style="fill:#ffffff;fill-opacity:1;fill-rule:nonzero;stroke:none"
         id="path186" /><path
         d="m 10652,2124.52 c 0,0 280,70 180,-580 0,0 -40,-520 -320,-490 z"
         style="fill:none;stroke:#ffffff;stroke-width:2.5;stroke-linecap:butt;stroke-linejoin:miter;stroke-miterlimit:10;stroke-dasharray:none;stroke-opacity:1"
         id="path188" /><path
         d="m 10212,1934.52 c 0,0 170,70 180,-90 20,-370 -70,-470 50,-640 0,0 -140,140 -150,450 -7.5,233.98 -80,280 -80,280"
         style="fill:#ffffff;fill-opacity:1;fill-rule:nonzero;stroke:none"
         id="path190" /><path
         d="m 10212,1934.52 c 0,0 170,70 180,-90 20,-370 -70,-470 50,-640 0,0 -140,140 -150,450 -7.5,233.98 -80,280 -80,280 z"
         style="fill:none;stroke:#ffffff;stroke-width:2.5;stroke-linecap:butt;stroke-linejoin:miter;stroke-miterlimit:10;stroke-dasharray:none;stroke-opacity:1"
         id="path192" /><path
         d="m 8566.2,1130.65 c -70.86,39.37 -123.45,109.92 -152.55,186.77 -30.1,77.18 -40.1,160.85 -36.64,242.88 4.36,82.13 22.29,163.5 54.63,238.8 32.01,75.11 78.31,145.01 139.14,198.02 -47.84,-64.75 -83.49,-135.63 -108.71,-209.74 -24.79,-74.17 -39.93,-151.42 -43.35,-229.1 -4.06,-77.57 3.56,-155.84 25.58,-230.12 22.01,-74.01 61.69,-144.02 121.9,-197.51"
         style="fill:#46474c;fill-opacity:1;fill-rule:nonzero;stroke:none"
         id="path194" /><path
         d="m 8566.2,1130.65 c -70.86,39.37 -123.45,109.92 -152.55,186.77 -30.1,77.18 -40.1,160.85 -36.64,242.88 4.36,82.13 22.29,163.5 54.63,238.8 32.01,75.11 78.31,145.01 139.14,198.02 -47.84,-64.75 -83.49,-135.63 -108.71,-209.74 -24.79,-74.17 -39.93,-151.42 -43.35,-229.1 -4.06,-77.57 3.56,-155.84 25.58,-230.12 22.01,-74.01 61.69,-144.02 121.9,-197.51 z"
         style="fill:none;stroke:#ffffff;stroke-width:2.5;stroke-linecap:butt;stroke-linejoin:miter;stroke-miterlimit:10;stroke-dasharray:none;stroke-opacity:1"
         id="path196" /><path
         d="m 9508.85,2025.39 c -3.85,-72.41 -2.77,-144.62 -5.14,-216.83 -1.44,-72.23 -4.46,-144.34 -7.47,-216.47 -3.61,-72.09 -7.24,-144.18 -12.41,-216.21 -4.22,-72.14 -11.95,-143.89 -14.09,-216.37 -15.24,71.62 -16.6,144.85 -18.51,217.17 -1.45,72.53 0.41,144.97 3.33,217.35 3.82,72.33 8.64,144.62 16.73,216.7 8.52,71.87 16.59,144.55 37.56,214.66"
         style="fill:#46474c;fill-opacity:1;fill-rule:nonzero;stroke:none"
         id="path198" /><path
         d="m 9508.85,2025.39 c -3.85,-72.41 -2.77,-144.62 -5.14,-216.83 -1.44,-72.23 -4.46,-144.34 -7.47,-216.47 -3.61,-72.09 -7.24,-144.18 -12.41,-216.21 -4.22,-72.14 -11.95,-143.89 -14.09,-216.37 -15.24,71.62 -16.6,144.85 -18.51,217.17 -1.45,72.53 0.41,144.97 3.33,217.35 3.82,72.33 8.64,144.62 16.73,216.7 8.52,71.87 16.59,144.55 37.56,214.66 z"
         style="fill:none;stroke:#ffffff;stroke-width:2.5;stroke-linecap:butt;stroke-linejoin:miter;stroke-miterlimit:10;stroke-dasharray:none;stroke-opacity:1"
         id="path200" /><path
         d="m 9234.17,1860.06 c -53.16,36.96 -109.21,75.51 -168.4,77.12 -59.17,2.81 -107.87,-39.66 -145.97,-87.34 -38.65,-48.06 -66.27,-105.5 -86.73,-165.29 -20.1,-60.12 -32.87,-123.17 -37.57,-188.6 -12.73,64.6 -9,132.54 6.22,197.56 15.13,65.16 42.98,128.32 85.41,182.35 21.66,26.24 46.39,51.12 76.79,70.1 30.36,18.53 68.34,28.89 104.31,23.64 36.08,-4.32 67.89,-20.75 94.97,-40.41 27.02,-20.19 49.85,-44.06 70.97,-69.13"
         style="fill:#46474c;fill-opacity:1;fill-rule:nonzero;stroke:none"
         id="path202" /><path
         d="m 9234.17,1860.06 c -53.16,36.96 -109.21,75.51 -168.4,77.12 -59.17,2.81 -107.87,-39.66 -145.97,-87.34 -38.65,-48.06 -66.27,-105.5 -86.73,-165.29 -20.1,-60.12 -32.87,-123.17 -37.57,-188.6 -12.73,64.6 -9,132.54 6.22,197.56 15.13,65.16 42.98,128.32 85.41,182.35 21.66,26.24 46.39,51.12 76.79,70.1 30.36,18.53 68.34,28.89 104.31,23.64 36.08,-4.32 67.89,-20.75 94.97,-40.41 27.02,-20.19 49.85,-44.06 70.97,-69.13 z"
         style="fill:none;stroke:#ffffff;stroke-width:2.5;stroke-linecap:butt;stroke-linejoin:miter;stroke-miterlimit:10;stroke-dasharray:none;stroke-opacity:1"
         id="path204" /><path
         d="m 10218.7,1248.71 c -2.5,-26.25 -9.8,-51.01 -19.9,-74.71 -9.8,-23.83 -23,-46.41 -39.6,-66.95 -16.7,-20.34 -36.7,-39.2 -61.5,-51.47 -24.2,-12.54 -53.8,-17.87 -79,-9.19 49.1,17.94 77.9,50.45 108.1,87.01 30,36.25 56.1,76.97 91.9,115.31"
         style="fill:#46474c;fill-opacity:1;fill-rule:nonzero;stroke:none"
         id="path206" /><path
         d="m 10218.7,1248.71 c -2.5,-26.25 -9.8,-51.01 -19.9,-74.71 -9.8,-23.83 -23,-46.41 -39.6,-66.95 -16.7,-20.34 -36.7,-39.2 -61.5,-51.47 -24.2,-12.54 -53.8,-17.87 -79,-9.19 49.1,17.94 77.9,50.45 108.1,87.01 30,36.25 56.1,76.97 91.9,115.31 z"
         style="fill:none;stroke:#ffffff;stroke-width:2.5;stroke-linecap:butt;stroke-linejoin:miter;stroke-miterlimit:10;stroke-dasharray:none;stroke-opacity:1"
         id="path208" /><path
         d="m 10792.4,2053.69 c 12.7,-79.79 17.9,-160.45 19.2,-241.14 1.7,-80.73 -2,-161.59 -10.3,-242.19 -9.3,-80.43 -22.3,-160.95 -46.5,-239.01 -24.5,-76.95 -58.5,-155.89 -118.9,-211 46.6,66.21 69,142.83 87.4,219.46 17.1,77.24 28,155.97 36.5,235.02 17.4,158.25 23.4,317.91 32.6,478.86"
         style="fill:#46474c;fill-opacity:1;fill-rule:nonzero;stroke:none"
         id="path210" /><path
         d="m 10792.4,2053.69 c 12.7,-79.79 17.9,-160.45 19.2,-241.14 1.7,-80.73 -2,-161.59 -10.3,-242.19 -9.3,-80.43 -22.3,-160.95 -46.5,-239.01 -24.5,-76.95 -58.5,-155.89 -118.9,-211 46.6,66.21 69,142.83 87.4,219.46 17.1,77.24 28,155.97 36.5,235.02 17.4,158.25 23.4,317.91 32.6,478.86 z"
         style="fill:none;stroke:#ffffff;stroke-width:2.5;stroke-linecap:butt;stroke-linejoin:miter;stroke-miterlimit:10;stroke-dasharray:none;stroke-opacity:1"
         id="path212" /><path
         d="m 10123.9,1847.02 c -0.9,14.33 6.6,28.85 16.6,39.62 10,11.07 22.3,19.62 35.1,26.95 26.1,13.77 54.2,23.25 85.9,23.9 l -1.9,-0.03 c 19.1,1.58 36,-0.43 54,-7.32 17.6,-6.51 35,-20.22 44.6,-38.49 9.6,-18.26 11.5,-38.08 10.6,-55.84 -0.9,-10.26 -1.1,-13.67 -1.1,-22.37 0,-7.88 0,-16.84 -1.5,-25.95 l 0.1,1.65 c -3.6,-51.54 -3.9,-103.31 -3.2,-155.36 1,-52.08 4.1,-104.26 6.9,-157.54 -19.4,49.74 -31.6,102.04 -38.9,155.01 -7.5,52.99 -9.2,106.84 -6.3,160.49 v 0.35 l 0.2,1.3 c 0.7,6.34 1.2,12.99 1.3,20.7 0,6.9 1.1,19.02 1.7,24.28 1,13.2 -0.6,25.51 -5.2,35.18 -4.4,9.72 -12.2,17.47 -23.4,22.63 -10.8,5.13 -25.4,7.84 -37.4,8.29 l -1.9,-0.03 c -24,2.17 -51.2,-1.87 -76.1,-9.99 -12.6,-3.93 -24.7,-9.38 -35.6,-16.67 -10.8,-7.3 -20.7,-17.02 -24.5,-30.76"
         style="fill:#46474c;fill-opacity:1;fill-rule:nonzero;stroke:none"
         id="path214" /><path
         d="m 10123.9,1847.02 c -0.9,14.33 6.6,28.85 16.6,39.62 10,11.07 22.3,19.62 35.1,26.95 26.1,13.77 54.2,23.25 85.9,23.9 l -1.9,-0.03 c 19.1,1.58 36,-0.43 54,-7.32 17.6,-6.51 35,-20.22 44.6,-38.49 9.6,-18.26 11.5,-38.08 10.6,-55.84 -0.9,-10.26 -1.1,-13.67 -1.1,-22.37 0,-7.88 0,-16.84 -1.5,-25.95 l 0.1,1.65 c -3.6,-51.54 -3.9,-103.31 -3.2,-155.36 1,-52.08 4.1,-104.26 6.9,-157.54 -19.4,49.74 -31.6,102.04 -38.9,155.01 -7.5,52.99 -9.2,106.84 -6.3,160.49 v 0.35 l 0.2,1.3 c 0.7,6.34 1.2,12.99 1.3,20.7 0,6.9 1.1,19.02 1.7,24.28 1,13.2 -0.6,25.51 -5.2,35.18 -4.4,9.72 -12.2,17.47 -23.4,22.63 -10.8,5.13 -25.4,7.84 -37.4,8.29 l -1.9,-0.03 c -24,2.17 -51.2,-1.87 -76.1,-9.99 -12.6,-3.93 -24.7,-9.38 -35.6,-16.67 -10.8,-7.3 -20.7,-17.02 -24.5,-30.76 z"
         style="fill:none;stroke:#ffffff;stroke-width:2.5;stroke-linecap:butt;stroke-linejoin:miter;stroke-miterlimit:10;stroke-dasharray:none;stroke-opacity:1"
         id="path216" /><path
         d="m 9870.95,2136.36 c 34.34,-2.32 67.27,-29.73 76.99,-66.45 2.37,-9.09 3.74,-18.57 3.57,-28.09 -0.21,-10.11 -1.62,-18.6 -2.65,-26.75 -2.22,-16.73 -4.81,-33.34 -6.58,-49.99 -7.81,-66.56 -14.55,-133.18 -18.34,-200.02 -4.59,-66.79 -6.65,-133.69 -7.25,-200.66 -0.37,-67.08 1.96,-133.87 8.65,-201.65 -23.7,64.01 -35.48,132.31 -41.22,200.26 -6.11,68.14 -5.8,136.59 -1.85,204.74 4.72,68.1 13.38,135.99 27.99,202.76 3.58,16.72 7.3,33.33 11.85,49.72 2.25,8.42 4.56,16.46 5.57,23.23 1.19,7.35 0.97,14.83 0.28,22.33 -2.88,30.21 -24.77,58.84 -57.01,70.57"
         style="fill:#46474c;fill-opacity:1;fill-rule:nonzero;stroke:none"
         id="path218" /><path
         d="m 9870.95,2136.36 c 34.34,-2.32 67.27,-29.73 76.99,-66.45 2.37,-9.09 3.74,-18.57 3.57,-28.09 -0.21,-10.11 -1.62,-18.6 -2.65,-26.75 -2.22,-16.73 -4.81,-33.34 -6.58,-49.99 -7.81,-66.56 -14.55,-133.18 -18.34,-200.02 -4.59,-66.79 -6.65,-133.69 -7.25,-200.66 -0.37,-67.08 1.96,-133.87 8.65,-201.65 -23.7,64.01 -35.48,132.31 -41.22,200.26 -6.11,68.14 -5.8,136.59 -1.85,204.74 4.72,68.1 13.38,135.99 27.99,202.76 3.58,16.72 7.3,33.33 11.85,49.72 2.25,8.42 4.56,16.46 5.57,23.23 1.19,7.35 0.97,14.83 0.28,22.33 -2.88,30.21 -24.77,58.84 -57.01,70.57 z"
         style="fill:none;stroke:#ffffff;stroke-width:2.5;stroke-linecap:butt;stroke-linejoin:miter;stroke-miterlimit:10;stroke-dasharray:none;stroke-opacity:1"
         id="path220" /><path
         d="m 7737.6,2475.77 c 4.35,-141.42 10.85,-432.94 0,-715.79 280.34,-32.62 519.39,337.22 312.93,583.06 -71.71,87.03 -197.76,139.24 -312.93,132.73 z m -358.56,-15.23 c 21.71,30.45 49.97,58.73 82.57,82.67 -26.09,137.06 -56.51,358.97 15.21,380.73 69.54,21.76 204.27,-217.57 243.39,-287.19 91.28,13.07 189.06,6.53 273.82,-10.87 2.18,-2.18 4.35,-2.18 8.7,-2.18 13.04,21.76 197.74,313.28 275.99,282.83 73.9,-28.27 13.03,-282.83 -23.91,-413.36 54.33,-47.88 99.96,-108.78 123.88,-184.94 60.83,-187.09 -2.18,-409 -141.26,-546.06 -106.5,-106.61 -239.05,-154.49 -375.96,-154.49 -43.48,0 -86.92,6.53 -130.4,15.24 -13.03,-228.43 -41.27,-428.6 -93.43,-511.27 -17.39,-26.12 -45.65,-39.17 -73.9,-39.17 -15.2,0 -121.69,-13.04 -136.9,-4.33 -41.3,26.09 -52.16,80.49 -26.09,121.81 69.54,104.43 84.75,678.81 73.89,1137.86 -21.74,-6.52 -47.8,-4.36 -71.72,10.87 -39.12,26.11 -49.98,80.51 -23.88,121.85"
         style="fill:#4ea497;fill-opacity:1;fill-rule:nonzero;stroke:none"
         id="path222" /><path
         d="m 7737.6,2475.77 c 4.35,-141.42 10.85,-432.94 0,-715.79 280.34,-32.62 519.39,337.22 312.93,583.06 -71.71,87.03 -197.76,139.24 -312.93,132.73 z m -358.56,-15.23 c 21.71,30.45 49.97,58.73 82.57,82.67 -26.09,137.06 -56.51,358.97 15.21,380.73 69.54,21.76 204.27,-217.57 243.39,-287.19 91.28,13.07 189.06,6.53 273.82,-10.87 2.18,-2.18 4.35,-2.18 8.7,-2.18 13.04,21.76 197.74,313.28 275.99,282.83 73.9,-28.27 13.03,-282.83 -23.91,-413.36 54.33,-47.88 99.96,-108.78 123.88,-184.94 60.83,-187.09 -2.18,-409 -141.26,-546.06 -106.5,-106.61 -239.05,-154.49 -375.96,-154.49 -43.48,0 -86.92,6.53 -130.4,15.24 -13.03,-228.43 -41.27,-428.6 -93.43,-511.27 -17.39,-26.12 -45.65,-39.17 -73.9,-39.17 -15.2,0 -121.69,-13.04 -136.9,-4.33 -41.3,26.09 -52.16,80.49 -26.09,121.81 69.54,104.43 84.75,678.81 73.89,1137.86 -21.74,-6.52 -47.8,-4.36 -71.72,10.87 -39.12,26.11 -49.98,80.51 -23.88,121.85 z"
         style="fill:none;stroke:#ffffff;stroke-width:30;stroke-linecap:butt;stroke-linejoin:miter;stroke-miterlimit:10;stroke-dasharray:none;stroke-opacity:1"
         id="path224" /><path
         d="m 9178.46,1860.06 c -63.02,56.57 -182.54,165.33 -310.76,26.1 -141.26,-150.11 -173.86,-452.53 -60.84,-576.52 69.54,-76.16 247.75,-21.77 347.71,52.22 4.35,152.28 10.85,343.74 23.89,498.2 z m 284.7,165.33 c -21.74,-89.18 -54.34,-772.32 -39.12,-865.88 6.52,-47.86 -26.08,-91.36 -73.88,-100.07 -4.35,0 -56.5,-6.54 -60.86,-6.54 -41.3,0 -126.04,21.76 -132.55,63.11 -2.18,10.87 -2.18,30.45 -2.18,60.9 -136.91,-76.13 -247.75,-106.6 -334.67,-106.6 -126.06,0 -208.63,58.75 -254.26,110.96 -173.85,191.46 -143.43,596.13 60.84,815.85 152.14,161 360.77,180.59 573.72,56.57 4.36,34.81 10.88,58.75 17.38,71.8 26.1,41.33 169.5,34.81 210.8,8.69 39.13,-21.74 52.16,-69.62 34.78,-108.79"
         style="fill:#4ea497;fill-opacity:1;fill-rule:nonzero;stroke:none"
         id="path226" /><path
         d="m 9178.46,1860.06 c -63.02,56.57 -182.54,165.33 -310.76,26.1 -141.26,-150.11 -173.86,-452.53 -60.84,-576.52 69.54,-76.16 247.75,-21.77 347.71,52.22 4.35,152.28 10.85,343.74 23.89,498.2 z m 284.7,165.33 c -21.74,-89.18 -54.34,-772.32 -39.12,-865.88 6.52,-47.86 -26.08,-91.36 -73.88,-100.07 -4.35,0 -56.5,-6.54 -60.86,-6.54 -41.3,0 -126.04,21.76 -132.55,63.11 -2.18,10.87 -2.18,30.45 -2.18,60.9 -136.91,-76.13 -247.75,-106.6 -334.67,-106.6 -126.06,0 -208.63,58.75 -254.26,110.96 -173.85,191.46 -143.43,596.13 60.84,815.85 152.14,161 360.77,180.59 573.72,56.57 4.36,34.81 10.88,58.75 17.38,71.8 26.1,41.33 169.5,34.81 210.8,8.69 39.13,-21.74 52.16,-69.62 34.78,-108.79 z"
         style="fill:none;stroke:#ffffff;stroke-width:30;stroke-linecap:butt;stroke-linejoin:miter;stroke-miterlimit:10;stroke-dasharray:none;stroke-opacity:1"
         id="path228" /><path
         d="m 10736.7,2053.69 c 6.5,-117.48 26.1,-737.53 -156.5,-933.34 -43.4,-45.69 -97.8,-69.63 -156.5,-69.63 -32.6,0 -132.5,15.25 -182.5,71.8 -28.3,30.47 -54.3,76.16 -78.2,126.19 -52.2,-115.3 -119.6,-202.32 -199.97,-202.32 -167.35,-10.9 -219.51,26.09 -267.31,84.84 -156.47,193.64 -128.23,676.62 -73.89,933.33 10.88,47.88 145.61,82.69 193.41,71.8 47.81,-10.87 76.07,-56.57 67.37,-104.43 -58.66,-276.3 -56.51,-672.26 36.95,-785.39 17.38,-21.77 30.41,-23.93 43.47,-23.93 43.47,0 93.47,124.01 126.07,293.71 -15.2,108.79 -21.8,224.08 -10.9,330.7 4.4,45.67 86.9,76.13 136.9,73.95 0,0 94.7,4.11 86.9,-91.36 -0.9,-10.86 0,-23.94 -2.1,-39.17 -17.4,-278.47 78.2,-530.86 130.4,-563.49 4.3,0 10.8,4.35 21.7,15.25 97.8,102.25 123.9,539.52 110.8,802.78 -4.3,47.88 37,67.46 84.8,71.8 47.8,2.17 86.9,-15.23 89.1,-63.09"
         style="fill:#4ea497;fill-opacity:1;fill-rule:nonzero;stroke:none"
         id="path230" /><path
         d="m 10736.7,2053.69 c 6.5,-117.48 26.1,-737.53 -156.5,-933.34 -43.4,-45.69 -97.8,-69.63 -156.5,-69.63 -32.6,0 -132.5,15.25 -182.5,71.8 -28.3,30.47 -54.3,76.16 -78.2,126.19 -52.2,-115.3 -119.6,-202.32 -199.97,-202.32 -167.35,-10.9 -219.51,26.09 -267.31,84.84 -156.47,193.64 -128.23,676.62 -73.89,933.33 10.88,47.88 145.61,82.69 193.41,71.8 47.81,-10.87 76.07,-56.57 67.37,-104.43 -58.66,-276.3 -56.51,-672.26 36.95,-785.39 17.38,-21.77 30.41,-23.93 43.47,-23.93 43.47,0 93.47,124.01 126.07,293.71 -15.2,108.79 -21.8,224.08 -10.9,330.7 4.4,45.67 86.9,76.13 136.9,73.95 0,0 94.7,4.11 86.9,-91.36 -0.9,-10.86 0,-23.94 -2.1,-39.17 -17.4,-278.47 78.2,-530.86 130.4,-563.49 4.3,0 10.8,4.35 21.7,15.25 97.8,102.25 123.9,539.52 110.8,802.78 -4.3,47.88 37,67.46 84.8,71.8 47.8,2.17 86.9,-15.23 89.1,-63.09 z"
         style="fill:none;stroke:#ffffff;stroke-width:30;stroke-linecap:butt;stroke-linejoin:miter;stroke-miterlimit:10;stroke-dasharray:none;stroke-opacity:1"
         id="path232" /><g
         id="g234"><g
           id="g236"
           clip-path="url(#clipPath240)"><path
             d="m 5565.39,3515.84 c -4.14,0.98 -84.07,18.16 -122.89,-107.36 -17.26,-55.84 -16.19,-101.03 3.2,-134.32 16.44,-28.25 44.25,-43.14 64.76,-47.65 15.45,-3.39 68.72,-12.42 105.63,13.98 21.19,15.16 33.92,40.46 37.85,75.2 12.94,114.51 -56.58,193.11 -87.87,199.98 z m -104.26,-336.11 c -21.53,10.7 -47.55,29.45 -66.37,61.77 -28.17,48.39 -30.76,110.75 -7.69,185.36 28.94,93.56 78.28,129.57 114.57,143.31 38.72,14.66 70.58,7.9 76.13,6.52 32.68,-7.38 69.34,-40.46 95.77,-86.45 31.08,-54.1 44.15,-119.76 36.79,-184.87 -5.86,-51.9 -26.3,-90.7 -60.74,-115.33 -54.68,-39.13 -125.5,-29.08 -153.41,-22.94 -6.53,1.43 -19.63,4.96 -35.05,12.63"
             style="fill:url(#linearGradient248);fill-opacity:1;fill-rule:nonzero;stroke:none"
             id="path250" /></g></g><path
         d="m 5565.39,3515.84 c -4.14,0.98 -84.07,18.16 -122.89,-107.36 -17.26,-55.84 -16.19,-101.03 3.2,-134.32 16.44,-28.25 44.25,-43.14 64.76,-47.65 15.45,-3.39 68.72,-12.42 105.63,13.98 21.19,15.16 33.92,40.46 37.85,75.2 12.94,114.51 -56.58,193.11 -87.87,199.98 z m -104.26,-336.11 c -21.53,10.7 -47.55,29.45 -66.37,61.77 -28.17,48.39 -30.76,110.75 -7.69,185.36 28.94,93.56 78.28,129.57 114.57,143.31 38.72,14.66 70.58,7.9 76.13,6.52 32.68,-7.38 69.34,-40.46 95.77,-86.45 31.08,-54.1 44.15,-119.76 36.79,-184.87 -5.86,-51.9 -26.3,-90.7 -60.74,-115.33 -54.68,-39.13 -125.5,-29.08 -153.41,-22.94 -6.53,1.43 -19.63,4.96 -35.05,12.63 z"
         style="fill:none;stroke:#ffffff;stroke-width:20;stroke-linecap:butt;stroke-linejoin:miter;stroke-miterlimit:10;stroke-dasharray:none;stroke-opacity:1"
         id="path252" /><path
         d="m 6163.57,3814.86 c -14.18,7.04 -37.06,14.6 -65.49,10.52 -48.32,-6.94 -95.75,-44.49 -140.97,-111.61 -78.73,-116.84 -63.08,-223.93 -46.74,-277.36 21.47,-70.25 63.06,-115.12 92.6,-127.07 16.38,-6.63 34.67,-5.13 54.37,4.45 51.61,25.08 108.22,105.17 131.68,186.31 l 2.14,7.38 c 31.16,107.6 63.39,218.84 -12.44,298.09 -1.84,1.43 -7.08,5.28 -15.15,9.29 z M 5973.8,3253.2 c -48.82,24.27 -94.04,86.07 -116.85,160.68 -19.8,64.75 -38.89,194.33 55.65,334.64 56.08,83.23 117.58,129.94 182.8,138.86 71.39,9.75 119.54,-30.5 121.56,-32.22 l 1.56,-1.47 c 100.48,-103.57 60.51,-241.59 25.24,-363.35 l -2.27,-7.85 c -23.86,-82.49 -85.45,-188.74 -164.32,-227.08 -32.62,-15.86 -65.47,-17.93 -94.97,-5.99 -2.8,1.13 -5.61,2.4 -8.4,3.78"
         style="fill:#4ea497;fill-opacity:1;fill-rule:nonzero;stroke:none"
         id="path254" /><path
         d="m 6163.57,3814.86 c -14.18,7.04 -37.06,14.6 -65.49,10.52 -48.32,-6.94 -95.75,-44.49 -140.97,-111.61 -78.73,-116.84 -63.08,-223.93 -46.74,-277.36 21.47,-70.25 63.06,-115.12 92.6,-127.07 16.38,-6.63 34.67,-5.13 54.37,4.45 51.61,25.08 108.22,105.17 131.68,186.31 l 2.14,7.38 c 31.16,107.6 63.39,218.84 -12.44,298.09 -1.84,1.43 -7.08,5.28 -15.15,9.29 z M 5973.8,3253.2 c -48.82,24.27 -94.04,86.07 -116.85,160.68 -19.8,64.75 -38.89,194.33 55.65,334.64 56.08,83.23 117.58,129.94 182.8,138.86 71.39,9.75 119.54,-30.5 121.56,-32.22 l 1.56,-1.47 c 100.48,-103.57 60.51,-241.59 25.24,-363.35 l -2.27,-7.85 c -23.86,-82.49 -85.45,-188.74 -164.32,-227.08 -32.62,-15.86 -65.47,-17.93 -94.97,-5.99 -2.8,1.13 -5.61,2.4 -8.4,3.78 z"
         style="fill:none;stroke:#ffffff;stroke-width:20;stroke-linecap:butt;stroke-linejoin:miter;stroke-miterlimit:10;stroke-dasharray:none;stroke-opacity:1"
         id="path256" /><path
         d="m 6330.8,3157.16 c 18.44,-26.4 75.13,-77.23 218.1,-18.36 135.66,55.87 202.04,215.73 205.86,311.4 4.14,103.67 -45.02,147.13 -54.91,154.8 l -1.94,1.68 c -4.04,3.89 -89.94,83.37 -220.15,-46.82 -144.47,-177.79 -177.4,-332.74 -146.96,-402.7 z m 6.76,-86.36 c -28.84,14.34 -47.08,34.24 -58.15,50.77 l -1.03,1.54 -0.76,1.66 c -23.69,51.8 -21.36,123.87 6.75,208.41 28.58,85.97 82.11,178.58 154.77,267.83 l 1.52,1.69 c 88.1,88.51 163.65,98.35 211.52,91.01 48.41,-7.41 78.91,-33.47 85.25,-39.33 15.46,-12.3 79.93,-71.63 74.78,-200.82 -2.65,-66.14 -26.75,-141.68 -66.13,-207.26 -32.17,-53.56 -89.47,-125.21 -179.79,-162.41 -70.63,-29.09 -132.93,-38.45 -185.13,-27.83 -16.7,3.4 -31.15,8.55 -43.6,14.74"
         style="fill:#4da497;fill-opacity:1;fill-rule:nonzero;stroke:none"
         id="path258" /><path
         d="m 6330.8,3157.16 c 18.44,-26.4 75.13,-77.23 218.1,-18.36 135.66,55.87 202.04,215.73 205.86,311.4 4.14,103.67 -45.02,147.13 -54.91,154.8 l -1.94,1.68 c -4.04,3.89 -89.94,83.37 -220.15,-46.82 -144.47,-177.79 -177.4,-332.74 -146.96,-402.7 z m 6.76,-86.36 c -28.84,14.34 -47.08,34.24 -58.15,50.77 l -1.03,1.54 -0.76,1.66 c -23.69,51.8 -21.36,123.87 6.75,208.41 28.58,85.97 82.11,178.58 154.77,267.83 l 1.52,1.69 c 88.1,88.51 163.65,98.35 211.52,91.01 48.41,-7.41 78.91,-33.47 85.25,-39.33 15.46,-12.3 79.93,-71.63 74.78,-200.82 -2.65,-66.14 -26.75,-141.68 -66.13,-207.26 -32.17,-53.56 -89.47,-125.21 -179.79,-162.41 -70.63,-29.09 -132.93,-38.45 -185.13,-27.83 -16.7,3.4 -31.15,8.55 -43.6,14.74 z"
         style="fill:none;stroke:#ffffff;stroke-width:20;stroke-linecap:butt;stroke-linejoin:miter;stroke-miterlimit:10;stroke-dasharray:none;stroke-opacity:1"
         id="path260" /><g
         id="g262"><g
           id="g264"
           clip-path="url(#clipPath268)"><path
             d="m 6822.73,2886.99 c -26.04,12.94 -71.55,22.15 -144.37,-2.31 -146.66,-49.26 -178.22,-134.91 -178.18,-153.48 0.15,-59.79 68.22,-101.28 186.81,-113.84 106.98,-5.72 146.67,93.18 163.63,135.45 2.56,6.37 4.57,11.4 6.49,15.26 10.07,20.26 9.3,69.46 -5.77,96.62 -1.87,2.54 -10.53,13.32 -28.61,22.3 z m -284.51,-283.68 c -79.53,39.54 -90.88,97.03 -90.95,126.24 -0.09,33.74 39.47,143.4 216.22,202.78 168.08,56.47 230.09,-35.44 232.66,-39.38 l 0.63,-1.05 c 25.1,-43.67 24.23,-111.04 7.76,-144.18 -1.19,-2.39 -3.08,-7.1 -5.27,-12.56 -19.47,-48.52 -71.2,-177.39 -215.43,-169.25 l -1.09,0.09 c -63.72,6.7 -110.41,20.35 -144.53,37.31"
             style="fill:url(#linearGradient276);fill-opacity:1;fill-rule:nonzero;stroke:none"
             id="path278" /></g></g><path
         d="m 6822.73,2886.99 c -26.04,12.94 -71.55,22.15 -144.37,-2.31 -146.66,-49.26 -178.22,-134.91 -178.18,-153.48 0.15,-59.79 68.22,-101.28 186.81,-113.84 106.98,-5.72 146.67,93.18 163.63,135.45 2.56,6.37 4.57,11.4 6.49,15.26 10.07,20.26 9.3,69.46 -5.77,96.62 -1.87,2.54 -10.53,13.32 -28.61,22.3 z m -284.51,-283.68 c -79.53,39.54 -90.88,97.03 -90.95,126.24 -0.09,33.74 39.47,143.4 216.22,202.78 168.08,56.47 230.09,-35.44 232.66,-39.38 l 0.63,-1.05 c 25.1,-43.67 24.23,-111.04 7.76,-144.18 -1.19,-2.39 -3.08,-7.1 -5.27,-12.56 -19.47,-48.52 -71.2,-177.39 -215.43,-169.25 l -1.09,0.09 c -63.72,6.7 -110.41,20.35 -144.53,37.31 z"
         style="fill:none;stroke:#ffffff;stroke-width:20;stroke-linecap:butt;stroke-linejoin:miter;stroke-miterlimit:10;stroke-dasharray:none;stroke-opacity:1"
         id="path280" /><g
         id="g282"><g
           id="g284"
           clip-path="url(#clipPath288)"><path
             d="m 5938.38,2743.54 c 0,0 8.69,10.2 26.13,16.05 17.43,5.86 49.36,26.29 33.25,81.49 -26.31,56.63 -84.47,63.77 -133.82,30.21 -49.35,-33.55 -69.5,-117.91 -21.4,-174.49 30.61,-33.37 81.64,-98.67 215.24,-34.39 124.8,90.43 96.94,195.03 92.52,222.64 -4.44,27.61 -26.52,143.86 -151.64,191.54 -109.11,36.09 -188.99,-0.45 -299.36,-47.23 -110.38,-46.77 -175.62,-119.61 -208.91,-186.56 -33.28,-66.95 -44.62,-184.73 26.8,-267.43 58.3,-65.28 139.76,-83.98 218.2,-57.63 55.2,16.12 91.62,-12.87 107.72,-60.81 16.1,-47.93 80.32,-159.72 248.87,-120.08 84.24,30.73 139.36,83.2 171.12,176.31 0,0 27.44,77.11 18.6,125.06 0,0 1.37,39.26 26.07,45.13 24.7,5.87 31.97,5.89 50.92,-14.42 18.94,-20.3 1.73,-120.66 -25.71,-197.76 -27.44,-77.12 -115.89,-174.73 -188.52,-196.7 -72.64,-21.98 -156.89,-52.7 -283.55,28.41 0,0 -46.59,30.41 -78.73,97.21 -14.62,36.31 -14.62,36.31 -14.62,36.31 0,0 -1.48,11.63 -14.56,7.24 -11.1,-3.73 -98.78,-30.77 -174.44,-0.41 -75.67,30.35 -163.03,88.29 -189.53,232.15 -10.4,95.92 6.72,232.61 148.91,350.7 114.64,84.58 196,109.49 252.65,128.52 47.93,16.1 172.83,70.19 328.63,-39.93 85.94,-68.13 119.67,-197.43 115.47,-264.31 -2.46,-39.2 -2.5,-173 -166.55,-269.33 -148.13,-64.31 -267.52,16.82 -312.8,108.29 -40.98,114.75 -7.7,181.7 60.47,245.82 97.24,71.47 180.19,33.86 219.53,-3.84 34.98,-39.17 56.89,-82.73 41.06,-151.09 -19.57,-84.5 -99.67,-100.86 -108.79,-102.02 -23.25,-2.96 -55.33,34.76 -29.23,65.35"
             style="fill:url(#linearGradient296);fill-opacity:1;fill-rule:nonzero;stroke:none"
             id="path298" /></g></g><path
         d="m 5938.38,2743.54 c 0,0 8.69,10.2 26.13,16.05 17.43,5.86 49.36,26.29 33.25,81.49 -26.31,56.63 -84.47,63.77 -133.82,30.21 -49.35,-33.55 -69.5,-117.91 -21.4,-174.49 30.61,-33.37 81.64,-98.67 215.24,-34.39 124.8,90.43 96.94,195.03 92.52,222.64 -4.44,27.61 -26.52,143.86 -151.64,191.54 -109.11,36.09 -188.99,-0.45 -299.36,-47.23 -110.38,-46.77 -175.62,-119.61 -208.91,-186.56 -33.28,-66.95 -44.62,-184.73 26.8,-267.43 58.3,-65.28 139.76,-83.98 218.2,-57.63 55.2,16.12 91.62,-12.87 107.72,-60.81 16.1,-47.93 80.32,-159.72 248.87,-120.08 84.24,30.73 139.36,83.2 171.12,176.31 0,0 27.44,77.11 18.6,125.06 0,0 1.37,39.26 26.07,45.13 24.7,5.87 31.97,5.89 50.92,-14.42 18.94,-20.3 1.73,-120.66 -25.71,-197.76 -27.44,-77.12 -115.89,-174.73 -188.52,-196.7 -72.64,-21.98 -156.89,-52.7 -283.55,28.41 0,0 -46.59,30.41 -78.73,97.21 -14.62,36.31 -14.62,36.31 -14.62,36.31 0,0 -1.48,11.63 -14.56,7.24 -11.1,-3.73 -98.78,-30.77 -174.44,-0.41 -75.67,30.35 -163.03,88.29 -189.53,232.15 -10.4,95.92 6.72,232.61 148.91,350.7 114.64,84.58 196,109.49 252.65,128.52 47.93,16.1 172.83,70.19 328.63,-39.93 85.94,-68.13 119.67,-197.43 115.47,-264.31 -2.46,-39.2 -2.5,-173 -166.55,-269.33 -148.13,-64.31 -267.52,16.82 -312.8,108.29 -40.98,114.75 -7.7,181.7 60.47,245.82 97.24,71.47 180.19,33.86 219.53,-3.84 34.98,-39.17 56.89,-82.73 41.06,-151.09 -19.57,-84.5 -99.67,-100.86 -108.79,-102.02 -23.25,-2.96 -55.33,34.76 -29.23,65.35 z"
         style="fill:none;stroke:#ffffff;stroke-width:20;stroke-linecap:butt;stroke-linejoin:miter;stroke-miterlimit:10;stroke-dasharray:none;stroke-opacity:1"
         id="path300" /></g></g></svg>
